<svg width="700" height="620" viewBox="0 0 700 620" fill="none" xmlns="http://www.w3.org/2000/svg">
<ellipse opacity="0.49" cx="349.931" cy="548.726" rx="349.931" ry="71.2742" fill="#D9D9D9"/>
<path d="M593.648 252.143C593.648 252.143 583.071 241.567 588.359 235.749C593.648 229.931 595.233 228.345 594.704 219.355C594.175 210.364 606.338 212.48 606.338 204.548C606.338 196.615 609.511 191.326 616.386 189.741C623.26 188.154 621.145 179.164 625.376 179.164C629.607 179.164 634.367 184.982 631.194 190.27C628.021 195.559 624.849 198.202 625.905 204.548C626.963 210.893 619.031 210.364 617.973 215.653C616.915 220.942 623.262 226.758 617.444 232.047C611.626 237.336 605.809 238.922 607.397 243.681C608.984 248.441 599.995 254.259 593.648 252.143Z" fill="#54A25A"/>
<path d="M594.322 259.868C594.322 259.868 607.374 246.817 600.847 239.639C594.322 232.461 592.364 230.503 593.017 219.41C593.671 208.317 578.661 210.927 578.661 201.139C578.661 191.351 574.746 184.824 566.263 182.868C557.78 180.91 560.39 169.817 555.17 169.817C549.95 169.817 544.077 176.995 547.992 183.519C551.907 190.044 555.824 193.307 554.517 201.139C553.212 208.969 563 208.317 564.305 214.842C565.61 221.367 557.78 228.545 564.958 235.071C572.136 241.596 579.315 243.554 577.356 249.427C575.4 255.302 586.493 262.48 594.322 259.868Z" fill="#5ECB73"/>
<path d="M584.866 281.912H599.545C603.144 281.912 606.19 279.256 606.679 275.691L610.592 247.184H573.82L577.733 275.691C578.221 279.254 581.267 281.912 584.866 281.912Z" fill="#D4E9FF"/>
<path d="M110.49 196.612C110.49 196.612 123.119 208.231 112.511 228.439C101.903 248.647 109.479 270.874 118.573 276.936" stroke="#130E42" stroke-width="0.9883" stroke-miterlimit="10"/>
<path d="M137.516 262.159C137.516 262.159 126.908 267.085 126.908 277.693H151.535L137.516 262.159Z" fill="#D4E9FF"/>
<path d="M153.178 148.873L154.188 158.977L107.205 205.958L103.669 194.844L153.178 148.873Z" fill="#D4E9FF"/>
<path d="M152.02 142.155L157.377 147.512L101.303 203.587L95.9451 198.23L152.02 142.155Z" fill="#130E42"/>
<path d="M105.284 195.01L163.876 279.881L152.652 287.63L94.0595 202.758L105.284 195.01Z" fill="#130E42"/>
<path d="M295.64 407.022L334.035 546.454H338.075L306.754 403.991L295.64 407.022Z" fill="#6FA4FF"/>
<path d="M327.971 407.022L366.366 546.454H370.406L339.086 403.991L327.971 407.022Z" fill="#6FA4FF"/>
<path d="M273.411 407.022L235.018 546.454H230.976L262.298 403.991L273.411 407.022Z" fill="#6FA4FF"/>
<path d="M241.08 407.022L202.686 546.454H198.645L229.966 403.991L241.08 407.022Z" fill="#6FA4FF"/>
<path d="M225.925 314.068C225.925 314.068 226.936 234.249 264.32 233.239C301.704 232.228 324.942 262.54 328.984 298.913C333.026 335.287 357.274 384.794 362.326 399.951C367.377 415.107 296.651 420.159 277.455 414.095C258.258 408.034 217.844 407.023 220.874 364.588C223.904 322.151 225.925 314.068 225.925 314.068Z" fill="#FF981A"/>
<path d="M234.008 244.353C234.008 244.353 191.053 371.971 214.81 397.93C242.09 427.735 347.169 416.621 351.211 410.559C355.253 404.497 245.122 413.085 232.997 384.794C220.872 356.504 249.163 247.383 244.111 244.353C239.059 241.321 237.038 237.279 234.008 244.353Z" fill="#FFC21A"/>
<path d="M312.311 121.593C312.311 121.593 340.601 133.339 333.529 169.08C330.497 173.627 322.415 167.059 307.26 168.07C292.104 169.08 270.382 163.017 271.392 152.409C272.401 141.8 285.031 114.52 312.311 121.593Z" fill="#D54D1A"/>
<path d="M366.871 177.668C366.871 177.668 365.86 166.553 374.449 162.007C383.038 157.46 388.595 149.377 388.595 149.377C388.595 149.377 392.131 151.398 390.11 154.934C388.089 158.471 386.068 159.481 386.068 162.007C386.068 164.532 387.583 166.553 387.583 166.553C387.583 166.553 393.645 162.513 397.687 159.481C401.729 156.449 408.802 145.841 410.317 146.852C411.832 147.862 412.338 149.377 409.812 151.903C407.287 154.428 401.223 162.007 397.183 165.038C393.14 168.07 414.865 148.367 416.38 149.377C417.895 150.388 414.865 154.934 410.823 158.975C406.781 163.016 396.677 168.068 390.615 171.1C384.553 174.132 366.871 177.668 366.871 177.668Z" fill="#FF9F8D"/>
<path d="M365.609 182.972C365.609 182.972 345.131 258.429 346.277 270.334C347.422 282.24 367.883 282.24 370.913 273.148C373.945 264.055 376.217 194.339 379.249 183.73C382.281 173.121 407.287 167.058 407.287 167.058C407.287 167.058 422.442 154.175 420.927 153.418C419.412 152.66 413.348 153.418 408.044 157.964C402.74 162.511 400.466 164.026 389.1 164.784C377.734 165.541 369.398 164.784 366.367 171.603C363.335 178.425 365.609 182.972 365.609 182.972Z" fill="#FFB6AB"/>
<path d="M322.414 201.159C322.414 201.159 328.476 200.401 336.054 213.284C343.633 226.166 373.185 268.601 360.303 276.18C347.42 283.758 337.569 274.665 333.78 267.086C329.991 259.508 298.922 223.135 301.196 213.284C303.47 203.433 313.321 198.129 322.414 201.159Z" fill="#E53888"/>
<path d="M455.464 521.989L458.928 527.184C458.928 527.184 476.247 550.277 476.247 554.317C476.247 558.358 450.847 541.039 448.538 538.153C446.228 535.267 445.652 531.803 445.652 531.803L443.92 524.876L455.464 521.989Z" fill="#E53888"/>
<path d="M394.85 525.453L392.54 531.803C392.54 531.803 390.809 552.586 385.612 557.781C380.417 561.822 377.529 533.536 379.839 527.762C382.148 523.144 383.303 521.412 383.303 521.412L394.85 525.453Z" fill="#E53888"/>
<path d="M319.226 342.454C319.226 342.454 381.573 342.454 431.219 373.628C456.619 396.718 402.354 525.453 397.736 527.762C391.962 530.072 383.303 526.031 379.84 521.412C377.531 516.794 391.964 433.665 390.809 411.728L300.753 382.864L319.226 342.454Z" fill="#0F3C8B"/>
<path d="M440.454 528.339C443.918 529.494 454.309 528.339 457.773 521.411C461.237 514.483 417.364 409.417 394.271 385.171C371.179 360.926 327.307 342.453 327.307 342.453L315.846 309.016L252.193 302.954C252.193 302.954 230.322 355.154 240.713 377.09C240.713 377.09 243.023 401.336 282.277 403.645C321.532 405.954 351.551 410.573 361.943 416.345C372.335 422.118 440.454 528.339 440.454 528.339Z" fill="#231D5A"/>
<path d="M312.643 194.045C321.465 196.565 328.394 203.303 331.581 211.907C331.725 212.295 331.869 212.67 332.013 213.032C334.034 218.083 345.149 233.24 337.065 245.364C328.982 257.489 324.94 261.529 324.94 280.727C324.94 299.924 327.971 300.934 324.94 306.996C319.888 313.058 291.598 324.172 245.12 305.986C237.772 303.11 254.214 278.705 250.172 257.489C246.131 236.27 238.047 212.022 246.131 201.918C253.053 193.265 282.202 185.353 312.643 194.045Z" fill="#E53888"/>
<path d="M251.184 198.886C251.184 198.886 242.091 199.644 229.966 216.315C217.841 232.987 195.107 258.751 192.834 267.844C191.319 276.937 205.717 282.999 217.84 276.18C229.965 269.361 251.94 243.595 260.276 233.745C268.612 223.892 267.854 195.097 251.184 198.886Z" fill="#E53888"/>
<path d="M205.936 258.22C205.936 258.22 192.997 259.131 192.465 270.485C191.933 281.838 200.98 283.022 222.317 280.987C243.653 278.952 279.372 277.592 286.22 277.155C293.069 276.718 295.812 282.915 304.244 281.035C312.677 279.155 313.54 276.919 317.326 277.097C321.111 277.275 329.119 284.477 332.974 283.14C336.829 281.804 324.245 275.145 316.853 271.006C309.46 266.866 293.684 263.583 287.557 264.814C281.431 266.044 239.999 259.818 225.617 259.143C211.235 258.468 205.936 258.22 205.936 258.22Z" fill="#FFB6AB"/>
<path d="M318.625 196.612C318.625 196.612 327.719 214.041 304.985 220.861C282.252 227.68 253.835 205.327 254.593 195.855C264.318 191.308 299.302 186.004 318.625 196.612Z" fill="#FF9F8D"/>
<path d="M322.92 154.934C322.92 154.934 327.971 167.059 324.435 172.111C320.899 177.162 307.259 175.647 304.227 179.183C301.196 182.719 300.185 190.802 306.248 194.844C309.28 198.885 283.515 199.895 278.464 194.34C278.968 191.308 287.051 179.689 286.042 172.617C285.032 165.544 282.001 152.915 280.991 142.305C279.98 131.696 292.105 126.644 299.178 125.633C306.25 124.623 316.354 126.139 318.879 134.727C321.405 143.314 326.458 151.398 327.973 152.913C329.488 154.43 322.92 154.934 322.92 154.934Z" fill="#FF9F8D"/>
<path d="M304.228 129.675C304.228 129.675 307.764 134.222 302.713 143.315C297.661 152.409 291.598 162.007 297.155 174.638C297.155 174.638 275.432 177.163 260.277 158.977C261.792 153.419 268.865 131.696 283.011 122.603C297.155 113.51 312.312 119.067 317.869 124.118C323.426 129.169 334.414 143.125 333.403 156.261C333.403 160.303 327.34 122.161 304.228 129.675Z" fill="#D54D1A"/>
<path d="M303.849 191.308C303.849 191.308 303.092 199.644 295.134 203.812C290.967 204.569 282.252 196.233 279.979 189.793" stroke="#231D5A" stroke-width="0.4942" stroke-miterlimit="10"/>
<path d="M295.134 209.116C293.46 209.116 292.102 207.759 292.102 206.084C292.102 204.41 293.46 203.053 295.134 203.053C296.808 203.053 298.166 204.41 298.166 206.084C298.166 207.759 296.808 209.116 295.134 209.116Z" fill="white"/>
<path d="M432.865 256.786H496.395V267.835H432.865V256.786Z" fill="white"/>
<path d="M430.484 256.785V254.88H559.259V267.835H496.395V256.785H430.484Z" fill="#231D5A"/>
<path d="M426.388 249.927H489.917V254.88H426.388V249.927Z" fill="white"/>
<path d="M424.006 249.927V248.023H552.781V254.88H489.917V249.927H424.006Z" fill="#456BFF"/>
<path d="M423.625 267.835H552.399V280.788H423.625V267.835Z" fill="#FF5A61"/>
<path d="M423.626 269.739H489.537V280.788H423.626V269.739Z" fill="white"/>
<path d="M507.158 259.928H522.587V263.357H507.158V259.928Z" fill="#FF8E75"/>
<path d="M504.014 259.928H505.918V263.357H504.014V259.928Z" fill="#484FB6"/>
<path d="M438.568 106.942C438.568 108.917 440.169 110.516 442.143 110.516C444.118 110.516 445.717 108.916 445.717 106.942C445.717 104.967 444.116 103.368 442.143 103.368C440.169 103.368 438.568 104.967 438.568 106.942Z" fill="#D4E9FF"/>
<path d="M321.404 80.6724C321.404 84.0199 324.118 86.7342 327.466 86.7342C330.813 86.7342 333.527 84.0199 333.527 80.6724C333.527 77.3249 330.813 74.6107 327.466 74.6107C324.118 74.6107 321.404 77.3249 321.404 80.6724Z" fill="#D4E9FF"/>
<path d="M445.82 175.208H495.7C497.49 175.208 498.94 173.758 498.94 171.968V143.506C498.94 141.716 497.49 140.264 495.7 140.264H445.82C444.031 140.264 442.58 141.714 442.58 143.506V171.968C442.58 173.756 444.031 175.208 445.82 175.208Z" fill="#FFC1DA"/>
<path d="M443.75 141.029L470.196 163.367L497.136 140.612C497.473 140.781 497.78 140.997 498.037 141.267L480.902 155.741L498.94 170.977V171.966C498.94 172.101 498.917 172.23 498.901 172.361L480.062 156.451L470.196 164.785L460.328 156.451L442.578 171.444V170.027L459.489 155.743L443.046 141.854C443.235 141.538 443.472 141.262 443.75 141.029Z" fill="#6FA4FF"/>
<path d="M266.928 103.91H300.757C301.972 103.91 302.955 102.926 302.955 101.713V82.4083C302.955 81.1938 301.97 80.2108 300.757 80.2108H266.928C265.713 80.2108 264.73 81.1953 264.73 82.4083V101.713C264.73 102.927 265.713 103.91 266.928 103.91Z" fill="#FFC1DA"/>
<path d="M265.523 80.7307L283.46 95.8796L301.731 80.447C301.959 80.5605 302.168 80.7092 302.343 80.8917L290.722 90.7073L302.956 101.041V101.711C302.956 101.803 302.941 101.891 302.928 101.978L290.152 91.1888L283.46 96.8411L276.768 91.1888L264.73 101.357V100.396L276.199 90.7073L265.046 81.2873C265.173 81.0757 265.334 80.8886 265.523 80.7307Z" fill="#6FA4FF"/>
<path d="M398.783 50.6674H366.162C364.553 50.6674 363.25 49.3639 363.25 47.7553V45.4245C363.25 43.8159 364.554 42.5125 366.162 42.5125H398.783C400.391 42.5125 401.696 43.8159 401.696 45.4245V47.7553C401.696 49.3639 400.391 50.6674 398.783 50.6674Z" fill="#6FA4FF"/>
<path d="M398.84 44.647H367.733V45.8125H398.84V44.647Z" fill="white"/>
<path d="M376.587 47.444H367.733V48.6095H376.587V47.444Z" fill="white"/>
<path d="M407.211 36.9736H374.59C372.981 36.9736 371.678 35.6702 371.678 34.0616V31.7323C371.678 30.1237 372.981 28.8187 374.59 28.8187H407.211C408.819 28.8187 410.123 30.1222 410.123 31.7323V34.0616C410.123 35.6702 408.819 36.9736 407.211 36.9736Z" fill="#FFC21A"/>
<path d="M392.084 30.9548H376.161V32.1203H392.084V30.9548Z" fill="white"/>
<path d="M385.015 33.7503H376.161V34.9157H385.015V33.7503Z" fill="white"/>
<path d="M398.783 23.4563H366.162C364.553 23.4563 363.25 22.1528 363.25 20.5442V18.2134C363.25 16.6048 364.554 15.3014 366.162 15.3014H398.783C400.391 15.3014 401.696 16.6048 401.696 18.2134V20.5442C401.696 22.1513 400.391 23.4563 398.783 23.4563Z" fill="#6FA4FF"/>
<path d="M398.84 17.4359H367.733V18.6014H398.84V17.4359Z" fill="white"/>
<path d="M376.587 20.233H367.733V21.3984H376.587V20.233Z" fill="white"/>
<path d="M407.211 9.76255H374.59C372.981 9.76255 371.678 8.45758 371.678 6.85052V4.51968C371.678 2.91109 372.981 1.60765 374.59 1.60765H407.211C408.819 1.60765 410.123 2.91109 410.123 4.51968V6.85052C410.123 8.45758 408.819 9.76255 407.211 9.76255Z" fill="#FFC21A"/>
<path d="M392.084 3.74221H376.161V4.90764H392.084V3.74221Z" fill="white"/>
<path d="M385.015 6.53923H376.161V7.70465H385.015V6.53923Z" fill="white"/>
<path d="M265.328 281.286H345.517V277.914H268.7C266.839 277.913 265.328 279.423 265.328 281.286Z" fill="#C2E0FF"/>
<path d="M335.248 280.621H459.022L469.477 209.128C469.796 206.943 468.101 204.982 465.893 204.982H349.441C347.643 204.982 346.118 206.3 345.858 208.079L335.248 280.621Z" fill="#C2E0FF"/>
<path d="M337.617 280.621H461.39L471.845 209.128C472.164 206.943 470.469 204.982 468.261 204.982H351.809C350.012 204.982 348.486 206.3 348.225 208.079L337.617 280.621Z" fill="#231D5A"/>
<path d="M401.108 247.112C400.605 251.919 404.258 255.834 409.267 255.854C414.277 255.874 418.746 251.993 419.249 247.184C419.752 242.376 416.099 238.461 411.089 238.442C406.079 238.423 401.611 242.304 401.108 247.112Z" fill="#D4E9FF"/>
<path d="M101.053 297.737L52.0255 549.692H57.4723L111.95 296.375L101.053 297.737Z" fill="#D4E9FF"/>
<path d="M132.879 297.737L83.8502 549.692H89.2986L143.774 296.375L132.879 297.737Z" fill="#6FA4FF"/>
<path d="M599.427 297.737L648.456 549.692H643.008L588.532 296.375L599.427 297.737Z" fill="#D4E9FF"/>
<path d="M567.601 297.737L616.63 549.692H611.182L556.706 296.375L567.601 297.737Z" fill="#6FA4FF"/>
<path d="M78.5371 300.46H621.943C629.841 300.46 636.243 294.058 636.243 286.161H64.2377C64.2377 294.058 70.6398 300.46 78.5371 300.46Z" fill="#FF981A"/>
<path d="M50.6653 279.716H649.815V287.799H50.6653V279.716Z" fill="#0F3C8B"/>
<path d="M89.524 275.674H188.541V280.726H89.524V275.674Z" fill="#130E42"/>
<path d="M301.621 152.199C300.11 155.313 301.409 159.062 304.522 160.573C307.635 162.083 311.384 160.785 312.896 157.672C314.408 154.557 313.108 150.809 309.995 149.297C306.882 147.785 303.133 149.084 301.621 152.199Z" fill="#FF6961"/>
<path d="M90.535 199.391C90.535 204.413 94.6063 208.484 99.6283 208.484C104.65 208.484 108.722 204.413 108.722 199.391C108.722 194.369 104.65 190.297 99.6283 190.297C94.6063 190.297 90.535 194.369 90.535 199.391Z" fill="#D4E9FF"/>
<path d="M94.5753 199.391C94.5753 202.18 96.8372 204.442 99.6265 204.442C102.416 204.442 104.678 202.18 104.678 199.391C104.678 196.601 102.416 194.34 99.6265 194.34C96.8372 194.34 94.5753 196.601 94.5753 199.391Z" fill="white"/>
<path d="M425.989 69.6481C420.105 45.0592 435.269 20.3563 459.858 14.4726C484.447 8.58897 509.15 23.7526 515.033 48.3415C520.917 72.9305 505.753 97.6334 481.164 103.517C456.575 109.401 431.872 94.237 425.989 69.6481Z" fill="#FFC1DA"/>
<path d="M454.759 100C473.273 81.4851 495.903 82.6843 508.05 85.1593C499.775 97.0098 486.046 104.769 470.496 104.769C464.526 104.769 458.828 103.614 453.598 101.535C453.976 101.027 454.35 100.518 454.759 100Z" fill="#4582FF"/>
<path d="M451.423 64.5543C451.423 64.5543 449.074 74.2994 452.348 77.6822C455.62 81.065 465.718 78.2818 468.428 80.5819C471.137 82.8821 472.872 88.8534 468.788 92.6272C466.989 96.0376 486.529 93.6991 489.667 88.904C488.922 86.6805 481.433 78.8951 481.344 73.4437C481.255 67.9923 482.02 58.1092 481.505 49.9911C480.99 41.8746 471.245 39.5253 465.793 39.6143C460.342 39.7032 452.909 42.0616 452.038 48.838C451.167 55.6143 448.332 62.3139 447.373 63.6388C446.412 64.9637 451.423 64.5543 451.423 64.5543Z" fill="#FF9F8D"/>
<path d="M483.373 39.6741C483.373 39.6741 491.003 44.4431 488.856 52.5504C486.711 60.6578 480.988 67.5721 480.988 67.5721L473.597 64.9484C473.597 64.9484 478.604 57.7949 476.696 54.6958C474.789 51.5966 471.45 52.7881 470.259 55.4103C469.067 58.0341 469.305 61.6101 469.305 61.6101L466.444 60.6563C466.444 60.6563 465.013 51.5951 467.397 47.303C469.782 43.0109 470.973 42.7732 470.973 42.7732C470.973 42.7732 468.589 46.5884 462.628 44.6808C456.668 42.7732 454.76 47.0653 450.706 47.7799C446.653 48.4945 444.983 44.4416 444.983 44.4416C444.983 44.4416 447.128 45.1561 449.275 43.727C451.422 42.2963 452.853 35.8588 458.336 32.7582C463.82 29.6591 479.558 27.2746 483.373 39.6741Z" fill="#0F3C8B"/>
<path d="M458.592 62.6222C457.703 64.4562 458.468 66.6643 460.302 67.5537C462.136 68.4447 464.344 67.6795 465.234 65.8455C466.123 64.0115 465.358 61.8033 463.524 60.9139C461.69 60.023 459.482 60.7881 458.592 62.6222Z" fill="#FF6961"/>
<path d="M468.427 80.5804C465.717 78.2802 455.619 81.0634 452.347 77.6806C452.048 77.3724 451.812 76.9967 451.6 76.5949C452.612 77.3356 454.004 77.8922 455.95 78.0625C464.177 78.777 472.403 67.3329 474.907 70.9089C477.411 74.4865 472.762 80.9239 474.192 87.004C474.798 89.5756 476.491 91.885 478.242 93.7021C472.844 94.6253 467.838 94.429 468.787 92.6257C472.871 88.8518 471.138 82.8821 468.427 80.5804Z" fill="#FF7E79"/>
<path d="M373.122 137.859C352.023 137.859 334.918 120.755 334.918 99.655C334.918 78.5553 352.023 61.4506 373.122 61.4506C394.222 61.4506 411.327 78.5553 411.327 99.655C411.327 120.755 394.222 137.859 373.122 137.859Z" fill="#FFC1DA"/>
<path d="M370.534 83.704L379.123 76.8848C379.123 76.8848 384.933 78.3998 386.827 86.3569C388.721 94.314 376.976 96.2078 383.416 103.407C389.857 110.607 395.92 110.986 394.404 119.322C393.885 122.174 397.447 123.827 401.493 125.239C394.5 132.989 384.381 137.861 373.122 137.861C370.887 137.861 368.701 137.659 366.571 137.291C360.875 119.969 364.184 97.2107 364.851 96.2093C365.608 95.07 370.534 83.704 370.534 83.704Z" fill="#231D5A"/>
<path d="M384.862 98.0786C384.862 98.0786 389.047 105.321 387.228 108.802C385.409 112.283 376.67 112.444 375.046 114.927C373.423 117.409 373.447 122.597 377.607 124.652C379.854 126.955 363.664 129.708 360.017 126.612C360.088 124.656 364.239 116.655 363.021 112.271C361.802 107.887 358.852 100.16 357.344 93.5411C355.835 86.9243 363.079 82.738 367.463 81.5204C371.848 80.3028 378.353 80.4301 380.653 85.6469C382.953 90.8637 386.806 95.5546 387.888 96.3872C388.969 97.2199 384.862 98.0786 384.862 98.0786Z" fill="#FF9F8D"/>
<path d="M378.669 98.2274C379.814 99.4848 379.725 101.432 378.468 102.578C377.21 103.723 375.263 103.634 374.117 102.377C372.972 101.119 373.061 99.172 374.318 98.0265C375.574 96.881 377.522 96.9715 378.669 98.2274Z" fill="#FF6961"/>
<path d="M375.047 114.927C376.671 112.446 385.41 112.283 387.228 108.802C387.394 108.485 387.495 108.129 387.569 107.758C386.934 108.59 385.953 109.365 384.434 109.961C378.02 112.479 368.73 105.267 367.573 108.721C366.415 112.176 371.659 116.227 371.952 121.432C372.076 123.632 371.267 125.882 370.295 127.749C374.832 127.211 378.793 125.869 377.606 124.652C373.447 122.595 373.423 117.408 375.047 114.927Z" fill="#FF7E79"/>
<path d="M373.122 137.859C364.701 137.859 356.92 135.128 350.605 130.513C353.126 127.391 356.805 126.325 358.788 124.624C361.44 122.352 360.303 117.803 361.819 116.667C363.334 115.531 374.702 117.425 374.702 117.425C373.565 122.729 377.733 125.76 385.689 129.171C388.257 130.272 390.624 131.491 392.172 132.765C386.565 135.999 380.063 137.859 373.122 137.859Z" fill="#FFC21A"/>
<path d="M336.342 109.978C336.46 109.808 336.561 109.638 336.687 109.468C341.738 102.647 348.558 103.406 351.337 93.8064C354.116 84.2086 353.358 82.945 359.42 79.1558C365.482 75.3667 372.807 73.0941 379.122 76.8832C379.122 76.8832 385.972 80.266 380.652 85.6469C375.333 91.0278 371.543 88.2492 370.28 94.3124C369.016 100.374 374.827 103.153 370.027 107.446C365.227 111.74 370.28 114.772 367.501 122.602C365.896 127.125 361.843 132.233 356.661 134.138C346.83 129.436 339.33 120.651 336.342 109.978Z" fill="#231D5A"/>
<path d="M501.386 12.7543H532.032C534.961 12.7543 537.336 15.1296 537.336 18.0585V58.7226C537.336 61.6515 534.961 64.0268 532.032 64.0268H515.546C514.385 65.7381 511.594 69.4598 508.458 70.8047V64.0268H501.386C498.457 64.0268 496.082 61.6515 496.082 58.7226V18.0585C496.082 15.1296 498.457 12.7543 501.386 12.7543Z" fill="#E53888"/>
<path d="M523.713 24.0715L501.975 24.0715V22.1838L523.713 22.1838V24.0715Z" fill="white"/>
<path d="M512.818 30.0467H501.975V28.1591H512.818V30.0467Z" fill="white"/>
<path d="M515.924 35.8656H501.976V33.9779H515.924V35.8656Z" fill="white"/>
<path d="M531.639 42.7054L501.976 42.7054V40.8177H531.639V42.7054Z" fill="white"/>
<path d="M516.77 48.6808H501.975V46.7946H516.77V48.6808Z" fill="white"/>
<path d="M521.008 54.4995H501.975V52.6118H521.008V54.4995Z" fill="white"/>
<path d="M245.88 106.184H191.319V178.931H245.88V106.184Z" fill="#E53888"/>
<path d="M240.322 101.132H185.762V173.879H240.322V101.132Z" fill="#FFC1DA"/>
<path d="M216.264 121.2H194.525V123.088H216.264V121.2Z" fill="white"/>
<path d="M205.368 127.176H194.525V129.064H205.368V127.176Z" fill="white"/>
<path d="M208.474 132.994H194.525V134.881H208.474V132.994Z" fill="white"/>
<path d="M224.188 139.834H194.525V141.721H224.188V139.834Z" fill="white"/>
<path d="M209.32 145.81H194.525V147.696H209.32V145.81Z" fill="white"/>
<path d="M213.559 151.628H194.525V153.514H213.559V151.628Z" fill="white"/>
<path d="M303.35 50.5014C294.053 41.2044 294.053 26.1309 303.35 16.8338C312.647 7.53675 327.721 7.53675 337.018 16.8338C346.315 26.1309 346.315 41.2044 337.018 50.5014C327.721 59.7985 312.647 59.7985 303.35 50.5014Z" fill="#FFC1DA"/>
<path d="M332.204 36.0842C331.704 35.3957 330.23 31.9117 329.778 28.3878C329.744 28.1241 329.657 27.8987 329.586 27.6595C330.358 26.9449 330.995 25.9543 330.769 24.7091C330.264 21.9305 326.475 19.9094 320.918 20.4154C315.36 20.9199 315.613 23.9516 315.613 23.9516C315.613 23.9516 313.845 23.9516 311.824 26.7302C309.829 29.4735 312.511 39.3367 314.523 39.3459C314.538 40.0191 314.548 40.6509 314.54 41.183C314.511 42.9234 313.033 45.1193 311.806 46.8245C307.446 46.2602 303.496 46.6957 300.653 47.2754C304.956 53.4368 312.096 57.4713 320.18 57.4713C323.285 57.4713 326.246 56.8702 328.967 55.7891C328.77 55.5238 328.577 55.2601 328.364 54.9902C325.664 52.2898 322.795 50.4174 319.924 49.1186C319.571 47.4701 320.28 45.722 321.257 44.8924C321.344 44.8172 321.448 44.7528 321.565 44.6976C321.798 44.5872 322.083 44.5106 322.407 44.46C322.73 44.4078 323.092 44.3818 323.479 44.3664C323.865 44.3511 324.274 44.3496 324.695 44.3496C325.115 44.3496 325.543 44.3496 325.967 44.3404C326.604 44.3266 327.228 44.2898 327.794 44.1931C327.982 44.1609 328.163 44.1211 328.336 44.0735C328.856 43.9309 329.299 43.7132 329.618 43.3835C329.773 43.224 329.898 43.0277 330.006 42.8192C331.1 40.7352 330.098 36.5566 330.098 36.5566C330.098 36.5566 332.704 36.7743 332.204 36.0842Z" fill="#6FA4FF"/>
<path d="M470.18 119.318H537.623V126.897H470.18V119.318Z" stroke="#6FA4FF" stroke-width="0.9883" stroke-miterlimit="10"/>
<path d="M238.301 71.579H261.034V76.8832H238.301V71.579Z" stroke="#6FA4FF" stroke-width="0.9883" stroke-miterlimit="10"/>
<path d="M273.16 42.7839C273.16 44.4584 274.517 45.8155 276.192 45.8155C277.866 45.8155 279.223 44.4584 279.223 42.7839C279.223 41.1094 277.866 39.7523 276.192 39.7523C274.517 39.7523 273.16 41.1094 273.16 42.7839Z" stroke="#6FA4FF" stroke-width="0.9883" stroke-miterlimit="10"/>
<path d="M259.52 42.7839C259.52 44.4584 260.877 45.8155 262.551 45.8155C264.226 45.8155 265.583 44.4584 265.583 42.7839C265.583 41.1094 264.226 39.7523 262.551 39.7523C260.877 39.7523 259.52 41.1094 259.52 42.7839Z" stroke="#6FA4FF" stroke-width="0.9883" stroke-miterlimit="10"/>
<path d="M245.88 42.7839C245.88 44.4584 247.237 45.8155 248.911 45.8155C250.586 45.8155 251.943 44.4584 251.943 42.7839C251.943 41.1094 250.586 39.7523 248.911 39.7523C247.237 39.7523 245.88 41.1094 245.88 42.7839Z" stroke="#6FA4FF" stroke-width="0.9883" stroke-miterlimit="10"/>
<path d="M545.201 101.385C545.201 102.501 546.106 103.406 547.223 103.406C548.339 103.406 549.244 102.501 549.244 101.385C549.244 100.268 548.339 99.3636 547.223 99.3636C546.106 99.3636 545.201 100.268 545.201 101.385Z" fill="#4582FF"/>
<path d="M532.066 101.385C532.066 102.501 532.971 103.406 534.087 103.406C535.204 103.406 536.108 102.501 536.108 101.385C536.108 100.268 535.204 99.3636 534.087 99.3636C532.971 99.3636 532.066 100.268 532.066 101.385Z" fill="#4582FF"/>
<path d="M518.932 101.385C518.932 102.501 519.837 103.406 520.954 103.406C522.07 103.406 522.975 102.501 522.975 101.385C522.975 100.268 522.07 99.3636 520.954 99.3636C519.837 99.3636 518.932 100.268 518.932 101.385Z" fill="#4582FF"/>
</svg>
