<svg width="500" height="500" viewBox="0 0 500 500" fill="none" xmlns="http://www.w3.org/2000/svg">
<path d="M250 442.587C357.082 442.587 443.89 437.519 443.89 431.267C443.89 425.015 357.082 419.947 250 419.947C142.918 419.947 56.11 425.015 56.11 431.267C56.11 437.519 142.918 442.587 250 442.587Z" fill="#F5F5F5"/>
<path d="M95 392.21H53.79V392.46H95V392.21Z" fill="#E0E0E0"/>
<path d="M179 390.21H137.67V390.46H179V390.21Z" fill="#E0E0E0"/>
<path d="M232.78 390.21H222.78V390.46H232.78V390.21Z" fill="#E0E0E0"/>
<path d="M132.83 398.75H86.58V399H132.83V398.75Z" fill="#E0E0E0"/>
<path d="M292.8 392.08H271.2V392.33H292.8V392.08Z" fill="#E0E0E0"/>
<path d="M329.63 392.08H301.7V392.33H329.63V392.08Z" fill="#E0E0E0"/>
<path d="M464.33 396.31H401.89V396.56H464.33V396.31Z" fill="#E0E0E0"/>
<path d="M233.41 87.6521H187.345L189.857 58.9401H235.922L233.41 87.6521Z" fill="#EBEBEB"/>
<path d="M234.344 55.04L233.084 70.034L231.824 88.049H187.517L190.036 55.04H234.344Z" fill="#FAFAFA"/>
<path d="M230.106 60.159L232.618 88.869H186.555L184.044 60.159H187.96L189.324 58H201.734L203.511 60.159H230.106Z" fill="#F29BC4"/>
<path d="M304.807 94.063H255.791V143.079H304.807V94.063Z" fill="#EBEBEB"/>
<path d="M306.056 94.063H304.807V143.079H306.056V94.063Z" fill="#E0E0E0"/>
<path d="M300.275 98.5959H260.315V138.556H300.275V98.5959Z" fill="#F5F5F5"/>
<path d="M260.69 98.5959H260.324V138.556H260.69V98.5959Z" fill="#E0E0E0"/>
<path d="M280.671 124.353C284.974 124.353 288.462 119.909 288.462 114.428C288.462 108.947 284.974 104.503 280.671 104.503C276.368 104.503 272.88 108.947 272.88 114.428C272.88 119.909 276.368 124.353 280.671 124.353Z" fill="#E0E0E0"/>
<path d="M276.599 129.366H284.81V121.155H276.599V129.366Z" fill="#E0E0E0"/>
<path d="M265.395 138.556H295.477V135.76C295.477 130.436 291.161 126.12 285.837 126.12H275.034C269.71 126.12 265.394 130.436 265.394 135.76L265.395 138.556Z" fill="#E0E0E0"/>
<path d="M264.64 121.878C264.64 123.514 267.602 124.84 267.602 124.84C267.602 124.84 270.564 123.514 270.564 121.878C270.564 121.102 269.475 120.664 268.774 120.863C267.997 121.084 267.602 121.992 267.602 121.992C267.602 121.992 266.87 121.022 266.134 120.788C265.389 120.551 264.64 121.055 264.64 121.878Z" fill="#E0E0E0"/>
<path d="M291.256 114.591C291.256 116.739 295.146 118.481 295.146 118.481C295.146 118.481 299.036 116.739 299.036 114.591C299.036 113.573 297.605 112.997 296.686 113.259C295.666 113.549 295.146 114.741 295.146 114.741C295.146 114.741 294.185 113.468 293.218 113.16C292.24 112.849 291.256 113.511 291.256 114.591Z" fill="#E0E0E0"/>
<path d="M156.732 143.587C150.315 144.483 144.365 139.99 143.469 133.573C142.573 127.155 147.066 121.205 153.483 120.309C159.901 119.413 165.851 123.906 166.747 130.324C167.643 136.742 163.15 142.692 156.732 143.587ZM154.347 126.495C151.34 126.915 149.235 129.703 149.655 132.71C150.075 135.717 152.862 137.822 155.87 137.402C158.877 136.982 160.983 134.194 160.563 131.187C160.143 128.18 157.354 126.075 154.347 126.495Z" fill="#E0E0E0"/>
<path d="M152.315 96.9252L147.897 97.5417L151.862 125.956L156.28 125.34L152.315 96.9252Z" fill="#E0E0E0"/>
<path d="M155.959 93.2653L147.665 94.4226L148.282 98.8408L156.575 97.6835L155.959 93.2653Z" fill="#E0E0E0"/>
<path d="M156.759 98.9401L148.96 100.028L149.577 104.446L157.375 103.358L156.759 98.9401Z" fill="#E0E0E0"/>
<path d="M157.89 106.946L151.083 107.895L151.699 112.314L158.506 111.364L157.89 106.946Z" fill="#E0E0E0"/>
<path d="M147.472 243.271C156.69 233.642 155.642 217.681 145.133 207.621C134.624 197.561 118.632 197.212 109.415 206.841C100.198 216.47 101.245 232.431 111.754 242.491C122.264 252.551 138.255 252.9 147.472 243.271Z" fill="#E53888"/>
<g opacity="0.8">
<path d="M147.472 243.271C156.69 233.642 155.642 217.681 145.133 207.621C134.624 197.561 118.632 197.212 109.415 206.841C100.198 216.47 101.245 232.431 111.754 242.491C122.264 252.551 138.255 252.9 147.472 243.271Z" fill="white"/>
</g>
<path d="M116.691 209.24C116.385 209.24 116.084 209.1 115.887 208.836C115.558 208.392 115.651 207.766 116.094 207.437C119.268 205.081 123.266 203.835 127.656 203.835C127.661 203.835 127.666 203.835 127.671 203.835C128.223 203.836 128.67 204.283 128.67 204.836C128.67 205.388 128.222 205.835 127.67 205.835C127.67 205.835 127.661 205.835 127.656 205.835C123.698 205.835 120.113 206.944 117.286 209.042C117.108 209.176 116.899 209.24 116.691 209.24Z" fill="#E53888"/>
<path d="M121.421 243.643C121.262 243.643 121.101 243.605 120.95 243.524C114.751 240.205 110.413 234.306 109.05 227.341C107.822 221.071 109.285 214.864 113.063 210.31C113.415 209.887 114.046 209.827 114.471 210.179C114.896 210.531 114.954 211.162 114.602 211.587C111.209 215.676 109.901 221.278 111.013 226.956C112.26 233.33 116.227 238.725 121.894 241.76C122.381 242.02 122.565 242.627 122.304 243.114C122.123 243.452 121.778 243.643 121.421 243.643Z" fill="#E53888"/>
<path d="M131.43 246.251C129.273 246.251 127.058 245.9 124.842 245.186C124.317 245.017 124.028 244.454 124.196 243.928C124.366 243.403 124.931 243.112 125.455 243.283C131.605 245.263 137.749 244.162 142.302 240.256C146.944 236.275 149.102 230.07 148.075 223.658C147.987 223.113 148.359 222.6 148.904 222.512C149.446 222.421 149.962 222.795 150.05 223.341C151.188 230.445 148.778 237.335 143.604 241.773C140.163 244.726 135.924 246.251 131.43 246.251Z" fill="#E53888"/>
<path d="M148.25 221.118C147.827 221.118 147.435 220.848 147.298 220.424C145.455 214.697 141.127 209.876 135.722 207.528C135.215 207.308 134.983 206.719 135.203 206.212C135.422 205.706 136.009 205.472 136.518 205.694C142.443 208.268 147.185 213.546 149.202 219.812C149.371 220.337 149.082 220.901 148.556 221.07C148.454 221.102 148.352 221.118 148.25 221.118Z" fill="#E53888"/>
<path d="M132.488 206.401C132.412 206.401 132.334 206.392 132.257 206.374C130.753 206.018 129.209 205.837 127.669 205.835C127.117 205.835 126.669 205.386 126.67 204.834C126.671 204.282 127.118 203.835 127.67 203.835C129.364 203.836 131.064 204.036 132.718 204.427C133.255 204.555 133.588 205.093 133.46 205.631C133.352 206.091 132.941 206.401 132.488 206.401Z" fill="#E53888"/>
<path d="M114.851 230.294C114.444 230.294 114.061 230.043 113.913 229.639C112.035 224.533 112.674 219.146 115.666 214.859C118.532 210.752 123.097 208.396 128.188 208.396H128.191C128.744 208.396 129.191 208.844 129.191 209.396C129.191 209.948 128.743 210.396 128.191 210.396H128.188C123.759 210.396 119.793 212.44 117.305 216.004C114.693 219.747 114.141 224.465 115.789 228.949C115.979 229.468 115.714 230.042 115.195 230.233C115.082 230.274 114.965 230.294 114.851 230.294Z" fill="#E53888"/>
<path d="M130.713 241.71C130.71 241.71 130.706 241.71 130.703 241.71C124.897 241.651 119.015 238.326 115.716 233.239C115.415 232.776 115.547 232.156 116.011 231.856C116.474 231.555 117.093 231.688 117.394 232.151C120.338 236.691 125.57 239.657 130.723 239.71C131.276 239.716 131.719 240.168 131.713 240.72C131.707 241.27 131.261 241.71 130.713 241.71Z" fill="#E53888"/>
<path d="M134.446 241.277C133.998 241.277 133.59 240.973 133.476 240.519C133.343 239.983 133.669 239.44 134.205 239.307C142.316 237.287 144.416 230.197 143.75 224.74C142.881 217.619 137.256 210.406 128.188 210.396C127.635 210.396 127.188 209.947 127.189 209.395C127.19 208.843 127.637 208.396 128.189 208.396H128.19C138.42 208.407 144.759 216.505 145.735 224.498C146.743 232.751 142.406 239.327 134.687 241.249C134.608 241.268 134.526 241.277 134.446 241.277Z" fill="#E53888"/>
<path d="M124.105 215.919C123.727 215.919 123.366 215.704 123.197 215.339C122.965 214.838 123.183 214.244 123.684 214.011C125.176 213.321 126.859 212.955 128.549 212.955C129.102 212.955 129.549 213.403 129.549 213.955C129.549 214.507 129.102 214.955 128.549 214.955C127.147 214.955 125.755 215.256 124.524 215.826C124.388 215.889 124.245 215.919 124.105 215.919Z" fill="#E53888"/>
<path d="M130.526 237.052C125.492 237.052 120.849 233.983 118.621 229.146C116.548 224.645 117.155 219.93 120.245 216.535C120.617 216.127 121.25 216.097 121.657 216.468C122.065 216.84 122.095 217.472 121.723 217.881C119.192 220.664 118.711 224.562 120.438 228.31C122.385 232.538 126.499 235.184 130.845 235.048C134.378 234.939 137.316 233.008 138.703 229.883C140.276 226.34 139.568 222.154 136.855 218.961C136.497 218.54 136.548 217.909 136.969 217.551C137.391 217.195 138.022 217.244 138.378 217.666C141.594 221.451 142.418 226.443 140.53 230.695C138.823 234.539 135.224 236.914 130.906 237.047C130.78 237.05 130.653 237.052 130.526 237.052Z" fill="#E53888"/>
<path d="M134.744 216.798C134.559 216.798 134.374 216.747 134.207 216.641C132.48 215.539 130.523 214.956 128.549 214.955C127.996 214.955 127.549 214.507 127.549 213.955C127.549 213.403 127.997 212.955 128.549 212.955C130.905 212.956 133.234 213.647 135.283 214.955C135.749 215.252 135.885 215.87 135.588 216.336C135.398 216.635 135.074 216.798 134.744 216.798Z" fill="#E53888"/>
<path d="M130.028 232.54C127.72 232.54 125.489 231.507 123.915 229.636C121.937 227.284 121.479 224.162 122.724 221.489C123.881 219.003 126.223 217.518 128.989 217.516C129.541 217.516 129.989 217.963 129.989 218.516C129.989 219.068 129.542 219.516 128.989 219.516C127.022 219.517 125.358 220.57 124.538 222.332C123.626 224.292 123.975 226.598 125.447 228.349C126.952 230.138 129.24 230.913 131.424 230.369C133.279 229.908 134.621 228.549 135.012 226.735C135.128 226.195 135.654 225.854 136.201 225.968C136.741 226.084 137.084 226.616 136.968 227.156C136.412 229.734 134.521 231.66 131.907 232.31C131.281 232.464 130.652 232.54 130.028 232.54Z" fill="#E53888"/>
<path d="M135.817 224.623C135.391 224.623 134.997 224.348 134.863 223.921C134.065 221.372 131.595 219.519 128.987 219.516C128.434 219.516 127.987 219.067 127.988 218.515C127.989 217.963 128.436 217.516 128.988 217.516C132.446 217.52 135.72 219.963 136.771 223.324C136.936 223.851 136.642 224.412 136.116 224.578C136.017 224.607 135.916 224.623 135.817 224.623Z" fill="#E53888"/>
<path d="M130.267 228.381C129.728 228.381 129.283 227.951 129.268 227.408C129.253 226.856 129.689 226.396 130.241 226.382C131.151 226.358 131.287 225.707 131.287 225.32C131.287 224.73 130.902 223.841 129.843 223.813C129.554 223.822 129.266 223.944 129.064 224.165C128.86 224.388 128.762 224.69 128.784 225.038C128.817 225.589 128.398 226.063 127.846 226.097C127.296 226.135 126.822 225.711 126.787 225.159C126.733 224.27 127.017 223.438 127.589 222.815C128.157 222.194 128.958 221.839 129.842 221.815C132.099 221.874 133.287 223.666 133.287 225.321C133.287 227.076 132.057 228.334 130.296 228.382C130.285 228.381 130.276 228.381 130.267 228.381Z" fill="#E53888"/>
<path d="M156.038 225.053C157.257 238.983 146.954 250.273 133.024 250.273C132.664 250.273 132.303 250.263 131.942 250.243C145.202 249.563 154.828 238.543 153.648 225.053C152.469 211.573 140.914 200.553 127.535 199.873C127.893 199.853 128.252 199.843 128.612 199.843C142.543 199.843 154.82 211.133 156.038 225.053Z" fill="#E53888"/>
<g opacity="0.4">
<path d="M156.038 225.053C157.257 238.983 146.954 250.273 133.024 250.273C132.664 250.273 132.303 250.263 131.942 250.243C145.202 249.563 154.828 238.543 153.648 225.053C152.469 211.573 140.914 200.553 127.535 199.873C127.893 199.853 128.252 199.843 128.612 199.843C142.543 199.843 154.82 211.133 156.038 225.053Z" fill="white"/>
</g>
<path d="M176.415 102.142C176.441 102.442 176.487 102.742 176.543 103.032C176.912 104.962 177.944 106.702 179.358 108.002C180.989 109.502 183.141 110.432 185.431 110.432H269.921C274.201 110.432 277.438 107.192 277.513 103.032C277.518 102.742 277.512 102.442 277.485 102.142C277.285 99.8621 276.173 97.7821 274.543 96.2921C272.912 94.7921 270.76 93.8621 268.47 93.8621H183.98C179.401 93.8621 176.015 97.5721 176.415 102.142Z" fill="#E53888"/>
<path opacity="0.8" d="M176.415 102.142C176.441 102.442 176.487 102.742 176.543 103.032C176.912 104.962 177.944 106.702 179.358 108.002C180.989 109.502 183.141 110.432 185.431 110.432H269.921C274.201 110.432 277.438 107.192 277.513 103.032C277.518 102.742 277.512 102.442 277.485 102.142C277.285 99.8621 276.173 97.7821 274.543 96.2921C272.912 94.7921 270.76 93.8621 268.47 93.8621H183.98C179.401 93.8621 176.015 97.5721 176.415 102.142Z" fill="white"/>
<path d="M277.51 103.03C277.51 103.3 277.49 103.57 277.45 103.83C277.19 101.67 276.1 99.71 274.54 98.29C272.91 96.79 270.76 95.86 268.47 95.86L178.62 96C179.97 94.67 181.85 93.86 183.98 93.86H268.47C270.76 93.86 272.91 94.79 274.54 96.29C276.17 97.78 277.29 99.86 277.49 102.14C277.51 102.44 277.52 102.74 277.51 103.03Z" fill="#E53888"/>
<path opacity="0.5" d="M277.51 103.03C277.51 103.3 277.49 103.57 277.45 103.83C277.19 101.67 276.1 99.71 274.54 98.29C272.91 96.79 270.76 95.86 268.47 95.86L178.62 96C179.97 94.67 181.85 93.86 183.98 93.86H268.47C270.76 93.86 272.91 94.79 274.54 96.29C276.17 97.78 277.29 99.86 277.49 102.14C277.51 102.44 277.52 102.74 277.51 103.03Z" fill="white"/>
<path d="M262.961 97.8571L263.315 101.899L267.078 100.496L267.972 102.491L264.126 103.767L266.887 107.158L265.164 108.435L262.472 104.911L260.433 108.435L258.54 107.158L260.672 103.767L256.639 102.491L257.182 100.508L261.225 101.86L260.875 97.8571H262.961Z" fill="#E53888"/>
<path d="M239.854 97.8571L240.208 101.899L243.971 100.496L244.865 102.491L241.019 103.767L243.78 107.158L242.057 108.435L239.365 104.911L237.326 108.435L235.433 107.158L237.565 103.767L233.532 102.491L234.075 100.508L238.118 101.86L237.768 97.8571H239.854Z" fill="#E53888"/>
<path d="M216.747 97.8571L217.101 101.899L220.864 100.496L221.758 102.491L217.912 103.767L220.673 107.158L218.95 108.435L216.258 104.911L214.219 108.435L212.326 107.158L214.458 103.767L210.425 102.491L210.968 100.508L215.011 101.86L214.661 97.8571H216.747Z" fill="#E53888"/>
<path d="M193.64 97.8571L193.994 101.899L197.757 100.496L198.651 102.491L194.805 103.767L197.566 107.158L195.843 108.435L193.151 104.911L191.112 108.435L189.219 107.158L191.351 103.767L187.318 102.491L187.861 100.508L191.904 101.86L191.554 97.8571H193.64Z" fill="#E53888"/>
<path d="M249.644 89.942H245.707V90.942H249.644V89.942Z" fill="#E53888"/>
<path d="M266.583 89.942H253.729V90.942H266.583V89.942Z" fill="#E53888"/>
<path opacity="0.8" d="M397.791 127.244L393.699 174.014C393.576 175.424 392.944 176.704 391.99 177.664C390.889 178.814 389.346 179.534 387.696 179.534H355.226C354.026 179.534 352.949 179.154 352.107 178.494C350.794 177.504 350.027 175.864 350.189 174.014L354.281 127.244C354.548 124.194 357.234 121.724 360.284 121.724H392.754C395.804 121.724 398.058 124.194 397.791 127.244Z" fill="#E53888"/>
<path opacity="0.8" d="M397.791 127.244L393.699 174.014C393.576 175.424 392.944 176.704 391.99 177.664C390.889 178.814 389.346 179.534 387.696 179.534H355.226C354.026 179.534 352.949 179.154 352.107 178.494C350.794 177.504 350.027 175.864 350.189 174.014L354.281 127.244C354.548 124.194 357.234 121.724 360.284 121.724H392.754C395.804 121.724 398.058 124.194 397.791 127.244Z" fill="white"/>
<path d="M357.279 134.776C357.25 134.776 357.22 134.775 357.191 134.772C356.64 134.724 356.234 134.239 356.282 133.689L356.656 129.412C356.701 128.895 357.133 128.499 357.652 128.499H362.167C362.72 128.499 363.167 128.947 363.167 129.499C363.167 130.051 362.72 130.499 362.167 130.499H358.568L358.274 133.863C358.228 134.384 357.792 134.776 357.279 134.776Z" fill="#E53888"/>
<path d="M393.639 134.776C393.61 134.776 393.58 134.775 393.551 134.772C393 134.724 392.594 134.239 392.642 133.689L392.921 130.499H389.497C388.944 130.499 388.497 130.051 388.497 129.499C388.497 128.947 388.944 128.499 389.497 128.499H394.012C394.292 128.499 394.56 128.617 394.749 128.823C394.939 129.03 395.032 129.306 395.008 129.586L394.634 133.863C394.588 134.384 394.151 134.776 393.639 134.776Z" fill="#E53888"/>
<path d="M358.97 167.053H354.454C354.174 167.053 353.906 166.935 353.717 166.728C353.528 166.522 353.434 166.245 353.458 165.965L353.833 161.688C353.882 161.138 354.375 160.725 354.916 160.779C355.467 160.827 355.873 161.312 355.825 161.862L355.546 165.052H358.97C359.523 165.052 359.97 165.5 359.97 166.052C359.97 166.605 359.522 167.053 358.97 167.053Z" fill="#E53888"/>
<path d="M390.814 167.053H386.299C385.746 167.053 385.299 166.605 385.299 166.053C385.299 165.501 385.746 165.053 386.299 165.053H389.898L390.192 161.689C390.241 161.139 390.744 160.726 391.275 160.78C391.826 160.828 392.232 161.313 392.184 161.863L391.81 166.14C391.765 166.656 391.332 167.053 390.814 167.053Z" fill="#E53888"/>
<path d="M387.361 150.932C389.619 142.178 385.745 133.61 378.708 131.795C371.671 129.981 364.137 135.607 361.879 144.361C359.622 153.115 363.496 161.683 370.533 163.498C377.569 165.312 385.104 159.686 387.361 150.932Z" fill="white"/>
<path d="M378.549 172.528H365.599L366.732 159.577H379.682L378.549 172.528Z" fill="white"/>
<path d="M393.699 174.014C393.576 175.424 392.944 176.704 391.99 177.664C390.889 178.814 389.346 179.534 387.696 179.534H355.226C354.026 179.534 352.949 179.154 352.107 178.494C350.794 177.504 350.027 175.864 350.189 174.014C350.189 174.014 365.112 169.294 366.952 169.294C368.782 169.294 378.482 169.294 378.482 169.294L393.699 174.014Z" fill="white"/>
<path d="M399.621 140.895L398.11 159.266L399.105 159.348L400.617 140.977L399.621 140.895Z" fill="#E53888"/>
<path d="M400.678 132.497L400.381 136.106L401.377 136.188L401.674 132.579L400.678 132.497Z" fill="#E53888"/>
<path d="M365.878 244.07H361.94V245.07H365.878V244.07Z" fill="#E53888"/>
<path d="M382.817 244.07H369.963V245.07H382.817V244.07Z" fill="#E53888"/>
<path d="M406.331 226.997L403.837 255.502C403.612 258.071 401.347 260.154 398.778 260.154C396.209 260.154 394.309 258.071 394.533 255.502L397.027 226.997C397.832 217.792 390.999 210.297 381.793 210.297H371.595C362.39 210.297 354.245 217.792 353.439 226.997L352.421 238.637H343.117L344.135 226.997C345.389 212.659 358.076 200.994 372.408 200.994H382.606C396.941 200.994 407.586 212.659 406.331 226.997Z" fill="#E53888"/>
<g opacity="0.5">
<path d="M406.331 226.997L403.837 255.502C403.612 258.071 401.347 260.154 398.778 260.154C396.209 260.154 394.309 258.071 394.533 255.502L397.027 226.997C397.832 217.792 390.999 210.297 381.793 210.297H371.595C362.39 210.297 354.245 217.792 353.439 226.997L352.421 238.637H343.117L344.135 226.997C345.389 212.659 358.076 200.994 372.408 200.994H382.606C396.941 200.994 407.586 212.659 406.331 226.997Z" fill="white"/>
</g>
<path d="M407.004 254.458L402.145 309.995C401.838 313.51 398.746 316.353 395.231 316.353H339.694C336.185 316.353 333.585 313.51 333.893 309.995L338.752 254.458C338.95 252.189 340.319 250.194 342.205 249.072C343.236 248.457 344.425 248.1 345.665 248.1H401.202C402.406 248.1 403.498 248.436 404.404 249.01C406.153 250.127 407.206 252.148 407.004 254.458Z" fill="#E53888"/>
<path d="M349.248 278.717L363.676 300.931L411.268 253.339C411.686 252.921 411.11 252.27 410.644 252.635L365.289 288.185L356.724 274.375L349.248 278.717Z" fill="white"/>
<path d="M121.957 171.305H85.815C82.422 171.305 79.43 168.554 79.133 165.16L75.971 129.018C75.674 125.625 78.184 122.874 81.578 122.874H117.72C121.114 122.874 124.105 125.625 124.402 129.018L127.564 165.16C127.861 168.554 125.351 171.305 121.957 171.305Z" fill="#E53888"/>
<path opacity="0.8" d="M121.957 171.305H85.815C82.422 171.305 79.43 168.554 79.133 165.16L75.971 129.018C75.674 125.625 78.184 122.874 81.578 122.874H117.72C121.114 122.874 124.105 125.625 124.402 129.018L127.564 165.16C127.861 168.554 125.351 171.305 121.957 171.305Z" fill="white"/>
<path d="M79.151 150.73C79.151 150.73 91.99 132.841 101.462 133.3C110.934 133.758 126.639 150.308 126.639 150.308C126.639 150.308 103.466 162.474 79.151 150.73Z" fill="white"/>
<path d="M79.558 151.021L78.745 150.438C79.268 149.708 91.522 132.79 101.101 132.79C101.23 132.79 101.358 132.793 101.486 132.799C111.048 133.262 126.354 149.281 127.001 149.963L126.276 150.651C126.12 150.487 110.6 134.241 101.437 133.797C101.325 133.792 101.21 133.789 101.096 133.789C92.03 133.791 79.683 150.847 79.558 151.021Z" fill="#263238"/>
<path d="M77.816 151.359C75.879 151.359 73.364 150.639 72.473 147.898C72.388 147.635 72.532 147.353 72.794 147.268C73.056 147.185 73.339 147.327 73.424 147.589C74.572 151.127 78.867 150.278 79.049 150.24C79.314 150.187 79.584 150.357 79.64 150.628C79.697 150.898 79.523 151.163 79.252 151.219C78.851 151.303 78.356 151.359 77.816 151.359Z" fill="#263238"/>
<path d="M85.445 143.679C85.339 143.679 85.231 143.645 85.14 143.576C84.99 143.46 81.442 140.716 80.536 137.93C80.451 137.668 80.595 137.386 80.857 137.3C81.119 137.215 81.402 137.36 81.487 137.621C82.296 140.109 85.714 142.755 85.749 142.782C85.968 142.95 86.009 143.264 85.841 143.483C85.743 143.612 85.595 143.679 85.445 143.679Z" fill="#263238"/>
<path d="M92.795 136.869C92.792 136.869 92.788 136.869 92.784 136.869C92.508 136.863 92.289 136.635 92.295 136.358C92.309 135.717 90.719 131.531 90.12 129.955C89.869 129.295 89.69 128.822 89.652 128.695C89.572 128.431 89.721 128.152 89.985 128.071C90.255 127.991 90.529 128.141 90.609 128.405C90.645 128.525 90.817 128.974 91.054 129.6C92.448 133.269 93.309 135.684 93.294 136.38C93.289 136.652 93.066 136.869 92.795 136.869Z" fill="#263238"/>
<path d="M101.461 133.8C101.205 133.8 100.986 133.604 100.964 133.344L100.26 125.29C100.236 125.015 100.44 124.772 100.714 124.748C100.996 124.713 101.232 124.927 101.256 125.203L101.96 133.257C101.984 133.532 101.78 133.775 101.506 133.799C101.49 133.799 101.476 133.8 101.461 133.8Z" fill="#263238"/>
<path d="M128.138 150.814C127.328 150.814 126.731 150.699 126.678 150.688C126.407 150.634 126.233 150.371 126.286 150.1C126.341 149.829 126.599 149.65 126.874 149.707C126.898 149.711 129.315 150.175 130.816 149.119C131.453 148.67 131.828 148.021 131.961 147.136C132.002 146.862 132.26 146.678 132.529 146.716C132.801 146.757 132.99 147.011 132.949 147.285C132.776 148.441 132.251 149.334 131.388 149.94C130.379 150.649 129.106 150.814 128.138 150.814Z" fill="#263238"/>
<path d="M119.16 143.147C119.022 143.147 118.885 143.09 118.786 142.978C118.602 142.772 118.622 142.456 118.828 142.272C118.858 142.246 121.785 139.626 122.154 137.169C122.195 136.895 122.452 136.711 122.722 136.749C122.995 136.79 123.183 137.045 123.142 137.318C122.72 140.135 119.622 142.904 119.491 143.021C119.396 143.105 119.278 143.147 119.16 143.147Z" fill="#263238"/>
<path d="M110.708 137.337C110.68 137.337 110.652 137.335 110.624 137.33C110.352 137.284 110.168 137.026 110.214 136.753C110.225 136.689 111.312 130.259 111.509 128.943C111.55 128.669 111.808 128.484 112.077 128.523C112.35 128.564 112.538 128.819 112.497 129.092C112.299 130.416 111.211 136.855 111.2 136.92C111.159 137.164 110.947 137.337 110.708 137.337Z" fill="#263238"/>
<path d="M111.006 152.815C115.147 148.488 114.677 141.317 109.955 136.797C105.233 132.277 98.0479 132.12 93.9065 136.447C89.7652 140.773 90.2357 147.945 94.9575 152.465C99.6793 156.984 106.864 157.141 111.006 152.815Z" fill="#E53888"/>
<path opacity="0.3" d="M107.136 144.628C107.154 144.378 107.152 144.128 107.129 143.868C106.896 141.208 104.548 139.058 101.888 139.058C99.238 139.058 97.266 141.208 97.499 143.868C97.522 144.128 97.564 144.378 97.635 144.628H91.125C90.577 138.368 95.204 133.298 101.464 133.298C107.714 133.298 113.238 138.368 113.785 144.628H107.136Z" fill="black"/>
<path opacity="0.7" d="M107.129 143.868C107.152 144.128 107.154 144.378 107.136 144.628C106.967 146.928 105.13 148.678 102.73 148.678C100.34 148.678 98.197 146.928 97.636 144.628C97.564 144.378 97.522 144.128 97.5 143.868C97.267 141.208 99.239 139.058 101.889 139.058C104.548 139.058 106.896 141.208 107.129 143.868Z" fill="black"/>
<path opacity="0.7" d="M109.743 139.148C109.932 141.314 108.33 143.069 106.165 143.069C103.999 143.069 102.09 141.313 101.901 139.148C101.711 136.982 103.313 135.227 105.479 135.227C107.644 135.226 109.553 136.982 109.743 139.148Z" fill="white"/>
<path d="M94.257 118.384H90.319V119.384H94.257V118.384Z" fill="#E53888"/>
<path d="M111.195 118.384H98.342V119.384H111.195V118.384Z" fill="#E53888"/>
<path d="M275.976 191.65L276.322 192.061L276.782 192.589C277.112 192.939 277.431 193.309 277.791 193.651C278.479 194.373 279.23 195.068 279.989 195.785C281.51 197.185 283.104 198.503 284.764 199.734C286.453 200.986 288.228 202.143 290.013 203.281C290.983 203.819 291.831 204.39 292.772 204.907L294.945 206.108C295.26 206.248 295.614 206.269 295.943 206.167C296.64 205.959 300.663 201.978 301.943 200.504C304.779 197.25 309.084 192.976 311.398 189.333L314.038 192.904C312.402 197.364 310.23 201.608 307.569 205.544C306.135 207.668 304.421 209.588 302.473 211.253C301.299 212.242 299.973 213.036 298.547 213.605C296.744 214.327 294.762 214.476 292.872 214.03C292.381 213.912 291.902 213.753 291.438 213.554L290.54 213.16L288.921 212.423C287.828 211.937 286.78 211.365 285.719 210.831C283.599 209.701 281.542 208.456 279.559 207.1C277.559 205.726 275.64 204.238 273.813 202.642C272.86 201.814 272.009 200.972 271.141 200.059C270.707 199.613 270.274 199.136 269.852 198.65L269.226 197.892C269.002 197.608 268.834 197.398 268.519 196.969L275.976 191.65Z" fill="#FFB573"/>
<path d="M311.037 189.882L315.68 179.962L320.109 187.898C320.109 187.898 317.201 192.909 314.04 192.902L311.037 189.882Z" fill="#FFB573"/>
<path d="M320.902 175.844L325.585 181.861L320.109 187.888L315.68 179.962L320.902 175.844Z" fill="#FFB573"/>
<path d="M319.273 190.63H326.639C327.071 190.63 327.431 190.3 327.469 189.87L329.015 172.201C329.058 171.714 328.674 171.295 328.185 171.295H320.819C320.387 171.295 320.027 171.625 319.989 172.055L318.443 189.724C318.401 190.211 318.784 190.63 319.273 190.63Z" fill="#E53888"/>
<path opacity="0.3" d="M319.347 188.858H326.729L328.111 173.066H320.729L319.347 188.858Z" fill="white"/>
<path d="M318.872 186.623L320.184 185.949C320.848 185.608 321.462 185.178 322.008 184.67L322.25 183.795C321.963 183.317 321.393 183.087 320.855 183.234L319.766 183.53L314.362 183.941L314.227 186.217L315.805 188.664L316.353 188.685C317.594 188.734 318.675 187.848 318.872 186.623Z" fill="#FFB573"/>
<path d="M266.565 181.955C270.312 181.275 296.763 204.211 296.763 204.211L288.921 215.71C288.921 215.71 259.997 195.571 260.886 190.705C261.807 185.641 261.096 182.954 266.565 181.955Z" fill="#263238"/>
<path opacity="0.2" d="M269.898 189.331L269.61 201.37C272.617 203.702 283.454 212.012 283.454 212.012L269.898 189.331Z" fill="black"/>
<path d="M248.93 420.306L257.804 421.183L260.615 400.613L251.741 399.737L248.93 420.306Z" fill="#FFB573"/>
<path d="M161.602 299.606L159.327 308.246L178.522 316.519L182.497 307.753L161.602 299.606Z" fill="#FFB573"/>
<path d="M264.149 422.964C264.912 423.056 265.684 422.885 266.337 422.481C266.631 422.229 266.783 421.848 266.743 421.463C266.738 421.225 266.61 421.007 266.404 420.888C265.328 420.249 261.705 421.966 261.3 422.16C261.221 422.202 261.173 422.286 261.178 422.376C261.191 422.464 261.258 422.534 261.345 422.551C262.266 422.773 263.204 422.912 264.149 422.964ZM265.763 421.17C265.9 421.163 266.035 421.194 266.156 421.258C266.241 421.305 266.295 421.394 266.296 421.491C266.32 421.745 266.222 421.995 266.031 422.165C265.478 422.633 264.003 422.67 262.032 422.286C263.212 421.7 264.484 421.321 265.792 421.164L265.763 421.17Z" fill="#E53888"/>
<path d="M261.392 422.569L261.47 422.55C262.554 422.105 264.717 420.236 264.577 419.22C264.519 418.987 264.391 418.679 263.804 418.599C263.382 418.524 262.948 418.632 262.61 418.896C261.462 419.79 261.186 422.198 261.169 422.295C261.152 422.367 261.171 422.443 261.22 422.499C261.263 422.547 261.327 422.573 261.392 422.569ZM263.597 419.01L263.723 418.978C264.109 419.037 264.125 419.187 264.128 419.238C264.22 419.854 262.741 421.325 261.633 421.921C261.739 420.906 262.165 419.952 262.85 419.196C263.073 419.039 263.346 418.971 263.617 419.005L263.597 419.01Z" fill="#E53888"/>
<path d="M257.364 417.604L249.327 417.937C248.967 417.941 248.669 418.217 248.637 418.575L246.719 429.735C246.674 430.535 247.286 431.219 248.085 431.264C248.14 431.267 248.196 431.267 248.251 431.264C251.739 431.083 253.419 430.824 257.84 430.674C260.549 430.583 268.883 431.564 272.539 430.722C276.195 429.88 275.549 426.214 273.952 426.237C268.81 426.336 262.881 422.988 259.906 419.07C259.465 418.735 257.918 417.57 257.364 417.604Z" fill="#263238"/>
<path d="M163.406 309.384L167.485 302.451C167.677 302.147 167.607 301.747 167.323 301.526L158.987 293.861C158.34 293.39 157.433 293.532 156.961 294.179C156.928 294.224 156.898 294.27 156.871 294.319C155.131 297.347 154.437 298.899 152.165 302.694C150.773 305.019 145.427 311.488 144.151 315.017C142.875 318.546 146.305 319.991 147.153 318.637C149.859 314.263 155.888 311.098 160.793 310.724C161.316 310.535 163.134 309.867 163.406 309.384Z" fill="#263238"/>
<path opacity="0.2" d="M260.615 400.613L259.165 411.216L250.291 410.349L251.73 399.746L260.615 400.613Z" fill="black"/>
<path opacity="0.2" d="M188.395 309.887L184.296 319.14L171.943 313.684L175.094 304.866L188.395 309.887Z" fill="black"/>
<path d="M272.226 192.553C277.298 201.168 271.099 208.445 265.925 234.204L232.499 234.293C233.041 220.411 232.984 209.188 227.058 181.88C226.509 179.394 228.079 176.933 230.565 176.384C230.888 176.313 231.217 176.276 231.547 176.275C234.312 176.278 237.782 176.374 241.307 176.733C246.875 177.185 252.405 178.021 257.858 179.236C262.5 180.352 263.627 180.969 266.564 181.955C268.278 182.541 270.35 187.218 272.226 192.553Z" fill="#263238"/>
<path d="M267.161 235.943C267.161 235.943 285.929 290.213 285.475 316.308C285.218 331.258 284.092 359.115 279.581 378.709C275.9 394.697 260.904 404.908 260.904 404.908L248.875 404.196C248.875 404.196 242.384 379.797 243.513 370.087C245.759 350.761 252.427 336.237 251.624 318.49C250.34 289.425 241.744 235.477 241.744 235.477L267.161 235.943Z" fill="#E53888"/>
<path d="M246.488 407.328L263.435 408.331L264.983 403.237L246.043 401.486L246.488 407.328Z" fill="#263238"/>
<path opacity="0.2" d="M248.633 345.58C248.654 345.555 248.67 345.48 248.726 345.486C259.377 346.528 266.749 331.159 264.983 310.169L259.329 256.674L248.633 345.58Z" fill="black"/>
<path d="M258.744 235.487C258.744 235.487 273.659 330.918 242.637 341.661C226.271 347.862 212.497 341.138 196.19 333.921C186.762 329.748 174.982 318.461 174.982 318.461L179.51 306.13C179.51 306.13 190.216 302.654 204.477 304.867C220.38 307.334 221.047 311.832 226.7 308.446C238.577 279.077 218.138 255.868 232.03 235.441L258.744 235.487Z" fill="#E53888"/>
<path d="M180.395 303.793L174.343 319.779L178.804 323.188L185.995 304.163L180.395 303.793Z" fill="#263238"/>
<path d="M177.899 217.557C176.386 219.791 168.729 218.28 168.729 218.28L167.104 208.79L176.506 212.559L177.899 217.557Z" fill="#FFB573"/>
<path d="M168.985 208.295L170.454 218.156L164.798 219.003C164.171 219.056 163.602 218.638 163.465 218.023L161.305 210.96C161.229 210.62 161.436 210.281 161.773 210.192L168.985 208.295Z" fill="#FFB573"/>
<path d="M166.466 212.772L169.693 213.343L172.735 211.048L171.558 210.208C170.76 209.639 170.2 208.797 169.984 207.841C169.752 206.812 169.597 205.702 169.572 204.791L169.562 204.449C169.482 203.83 169 203.34 168.383 203.248L167.584 203.841C167.078 204.933 167.439 206.196 167.376 207.047L167.249 208.702L165.957 209.262L166.466 212.772Z" fill="#FFB573"/>
<path d="M228.673 180.001L209.754 206.03L174.982 212.858V218.561C174.982 218.561 207.643 220.983 214.97 216.706C222.297 212.429 234.624 186.542 234.624 186.542L228.673 180.001Z" fill="#FFB573"/>
<path d="M228.45 129.99C220.514 127.325 211.302 132.256 207.667 139.797C204.032 147.338 205.309 156.588 209.397 163.894C210.63 166.097 212.104 168.175 213.107 170.492C214.11 172.809 214.612 175.472 213.797 177.862C212.982 180.252 212.14 181.784 209.179 181.397C209.179 181.397 209.143 179.758 210.308 179.957C210.308 179.957 207.914 181.289 206.973 180.417C208.056 182.102 210.964 181.485 211.897 179.713C213.294 177.059 210.726 173.471 207.727 173.504C204.728 173.537 202.291 176.565 202.387 179.563C202.484 182.561 204.688 185.227 207.425 186.454C205.804 186.774 204.022 185.822 203.388 184.296C204.747 187.858 209.191 189.432 212.939 188.734C216.687 188.036 219.862 185.627 222.798 183.196C226.757 179.918 230.889 175.774 230.765 170.636C230.673 166.809 228.213 163.517 226.145 160.294C224.078 157.071 222.264 153.124 223.577 149.528C224.691 146.478 227.706 144.638 230.372 142.785C232.291 141.451 236.189 138.479 235.73 135.674C235.299 133.045 230.697 130.745 228.45 129.99Z" fill="#263238"/>
<path d="M210.56 219.008L205.322 205.14L206.523 205.239C208.506 205.403 210.399 204.4 211.37 202.663C215.352 195.543 225.701 177.468 228.612 176.57C232.762 175.34 237.032 178.66 238.642 183.56C239.826 187.173 227.663 202.647 222.018 211.45C217.02 219.245 210.56 219.008 210.56 219.008Z" fill="#263238"/>
<path d="M159.446 313.94C159.446 313.94 159.442 314.01 159.439 314.05C159.585 314.443 159.924 314.732 160.335 314.814C160.583 314.894 160.855 314.833 161.046 314.656C161.892 313.895 161.352 310.667 161.301 310.344C161.29 310.259 161.225 310.191 161.141 310.174C161.061 310.158 160.978 310.188 160.926 310.251C160.259 311.213 159.176 312.922 159.446 313.94ZM160.987 310.925C161.172 312.208 161.249 313.946 160.784 314.349C160.694 314.424 160.57 314.444 160.46 314.4C160.188 314.348 159.961 314.161 159.858 313.904C159.68 313.363 160.055 312.263 160.984 310.956L160.987 310.925Z" fill="#E53888"/>
<path d="M160.967 310.764C161.234 311.842 162.247 313.685 163.145 313.898C163.485 313.965 163.826 313.791 163.971 313.476C164.129 313.187 164.149 312.843 164.027 312.538C163.619 311.302 161.256 310.28 161.158 310.234C161.096 310.191 161.015 310.186 160.948 310.222C160.892 310.271 160.862 310.343 160.866 310.417C160.893 310.535 160.927 310.651 160.967 310.764ZM163.686 312.718C163.734 312.897 163.704 313.088 163.605 313.244C163.471 313.477 163.341 313.479 163.241 313.463C162.627 313.337 161.695 311.829 161.396 310.779C162.165 311.165 163.413 311.9 163.659 312.656C163.663 312.679 163.672 312.7 163.686 312.718Z" fill="#E53888"/>
<path d="M232.375 232.597L231.451 235.848C231.326 236.101 231.621 236.359 232.042 236.354L266.538 236.308C266.867 236.328 267.139 236.143 267.161 235.944L267.484 232.687C267.497 232.467 267.218 232.271 266.857 232.279L232.962 232.321C232.732 232.302 232.508 232.407 232.375 232.597Z" fill="#E53888"/>
<path opacity="0.5" d="M232.375 232.597L231.451 235.848C231.326 236.101 231.621 236.359 232.042 236.354L266.538 236.308C266.867 236.328 267.139 236.143 267.161 235.944L267.484 232.687C267.497 232.467 267.218 232.271 266.857 232.279L232.962 232.321C232.732 232.302 232.508 232.407 232.375 232.597Z" fill="white"/>
<path d="M238.961 236.655L237.959 236.656C237.769 236.645 237.614 236.555 237.631 236.436L238.082 232.205C238.089 232.085 238.265 231.985 238.466 231.987L239.468 231.976C239.658 231.987 239.813 232.077 239.795 232.206L239.345 236.427C239.328 236.546 239.151 236.656 238.961 236.655Z" fill="#E53888"/>
<path d="M263.867 236.65L262.865 236.651C262.675 236.64 262.52 236.551 262.537 236.431L262.987 232.21C262.995 232.08 263.171 231.98 263.361 231.982L264.363 231.981C264.553 231.992 264.708 232.082 264.691 232.201L264.241 236.422C264.233 236.552 264.067 236.652 263.867 236.65Z" fill="#E53888"/>
<path d="M252.461 236.628L251.459 236.629C251.269 236.618 251.114 236.528 251.131 236.409L251.581 232.188C251.589 232.058 251.765 231.959 251.955 231.96L252.957 231.959C253.147 231.97 253.302 232.06 253.285 232.179L252.835 236.4C252.827 236.529 252.661 236.63 252.461 236.628Z" fill="#E53888"/>
<path d="M242.866 158.534C243.926 163.976 244.966 173.815 241.274 176.782C241.274 176.782 242.746 182.369 252.636 183.856C263.558 185.505 257.825 179.285 257.825 179.285C251.884 176.93 252.028 172.631 253.054 168.674L242.866 158.534Z" fill="#FFB573"/>
<path d="M241.308 176.734C246.874 177.173 251.531 177.693 256.979 178.914L264.461 181.136C265.795 183.82 263.615 189.331 257.35 190.376C257.35 190.376 241.579 192.553 236.927 176.314L241.308 176.734Z" fill="#FFB573"/>
<path opacity="0.2" d="M247.019 162.677L253.045 168.674C252.791 169.602 252.624 170.551 252.547 171.509C250.272 170.843 246.614 168.333 246.366 165.934C246.358 164.815 246.58 163.706 247.019 162.677Z" fill="black"/>
<path d="M236.192 151.648C238.866 160.111 239.813 163.753 245.295 167.083C253.484 172.086 263.334 166.959 263.201 157.875C263.124 149.696 258.773 137.237 249.476 135.905C242.867 134.918 236.708 139.475 235.721 146.084C235.442 147.95 235.603 149.855 236.192 151.648Z" fill="#FFB573"/>
<path d="M256.375 150.328C257.323 151.82 258.473 153.173 259.792 154.349C259.163 155.013 258.276 155.369 257.363 155.323L256.375 150.328Z" fill="#ED893E"/>
<path d="M255.425 159.845C255.767 159.81 256.106 159.746 256.438 159.655C256.545 159.629 256.612 159.522 256.586 159.414C256.585 159.41 256.584 159.407 256.583 159.403C256.552 159.294 256.443 159.227 256.332 159.248C254.577 159.735 252.695 159.348 251.275 158.207C251.189 158.127 251.054 158.133 250.974 158.219C250.894 158.306 250.9 158.44 250.986 158.52C252.229 159.538 253.828 160.016 255.425 159.845Z" fill="#263238"/>
<path d="M233.282 134.755C231.071 136.16 229.623 138.696 229.535 141.314C229.519 141.812 229.552 142.327 229.767 142.776C229.982 143.226 230.412 143.599 230.91 143.626C231.673 143.668 232.234 142.951 232.652 142.312C233.297 141.326 233.941 140.34 234.586 139.353C235.218 138.386 236.268 137.263 236.611 136.159C237.236 134.149 234.465 134.004 233.282 134.755Z" fill="#E53888"/>
<path d="M234.232 136.75C228.916 142.887 226.544 159.879 242.097 164.616C244.697 162.56 240.498 158.813 238.716 154.07C237.55 150.967 243.475 145.175 245.79 142.803C248.105 140.431 250.226 136.994 253.494 137.544C254.349 137.688 255.26 137.972 256.05 137.614C258.639 136.441 257.382 134.892 256.08 133.808C254.166 132.214 251.473 131.492 249.032 131.227C243.618 130.64 237.838 132.588 234.232 136.75Z" fill="#263238"/>
<path d="M251.504 134.693C257.747 139.901 249.475 140.032 245.132 143.331C240.937 146.499 243.879 151.692 236.791 154.097C230.999 155.792 229.663 154.774 228.059 153.653C228.059 153.653 234.623 152.827 235.587 145.455C236.083 141.665 244.359 128.65 251.504 134.693Z" fill="#263238"/>
<path d="M235.249 158.757C236.226 160.169 237.72 161.139 239.407 161.458C241.648 161.851 242.511 159.799 241.737 157.799C241.012 156.003 238.979 153.629 236.815 154.142C235.258 154.541 234.32 156.127 234.72 157.684C234.819 158.074 235 158.439 235.249 158.757Z" fill="#FFB573"/>
<path d="M250.428 135.221C251.638 138.298 255.128 137.894 257.713 141.112C259.299 143.079 262.418 136.943 258.174 134.508C253.93 132.072 248.529 130.4 250.428 135.221Z" fill="#263238"/>
<path d="M246.754 148.219C246.934 148.24 247.107 148.14 247.179 147.974C248 146.147 250.462 145.69 250.485 145.688C250.714 145.645 250.865 145.424 250.822 145.195C250.779 144.966 250.558 144.815 250.329 144.858C250.205 144.875 247.4 145.447 246.405 147.648C246.307 147.858 246.398 148.108 246.608 148.206L246.61 148.207L246.754 148.219Z" fill="#263238"/>
<path d="M259.751 144.542C259.9 144.552 260.042 144.479 260.123 144.354C260.254 144.163 260.205 143.901 260.014 143.77C260.012 143.769 260.01 143.767 260.008 143.766C258.883 142.992 257.453 142.81 256.17 143.278C255.954 143.37 255.854 143.62 255.947 143.836C256.039 144.052 256.289 144.152 256.505 144.059C257.523 143.698 258.654 143.854 259.535 144.479C259.602 144.514 259.676 144.535 259.751 144.542Z" fill="#263238"/>
<path d="M300.861 199.283L295.011 202.613L288.921 215.71C288.921 215.71 294.802 219.453 299.436 216.423C304.069 213.393 300.861 199.283 300.861 199.283Z" fill="#E53888"/>
<path opacity="0.5" d="M300.861 199.283L295.011 202.613L288.921 215.71C288.921 215.71 294.802 219.453 299.436 216.423C304.069 213.393 300.861 199.283 300.861 199.283Z" fill="white"/>
<path d="M198.389 203.331L205.321 205.291L211.891 218.885C211.891 218.885 206.606 223.767 200.896 219.101C196.609 215.597 198.389 203.331 198.389 203.331Z" fill="#E53888"/>
<g opacity="0.5">
<path d="M198.389 203.331L205.321 205.291L211.891 218.885C211.891 218.885 206.606 223.767 200.896 219.101C196.609 215.597 198.389 203.331 198.389 203.331Z" fill="white"/>
</g>
<path d="M259.348 147.931C259.828 147.841 260.328 148.381 260.458 149.121C260.588 149.861 260.298 150.541 259.818 150.621C259.338 150.701 258.838 150.171 258.708 149.431C258.568 148.711 258.868 148.021 259.348 147.931Z" fill="#263238"/>
<path d="M260.828 147.201L259.138 148.031C260.158 148.751 260.828 147.201 260.828 147.201Z" fill="#263238"/>
<path d="M250.976 149.645C251.456 149.555 251.956 150.095 252.086 150.835C252.216 151.575 251.926 152.255 251.446 152.335C250.966 152.415 250.466 151.885 250.336 151.145C250.196 150.425 250.496 149.735 250.976 149.645Z" fill="#263238"/>
<path d="M252.456 148.915L250.766 149.745C251.786 150.465 252.456 148.915 252.456 148.915Z" fill="#263238"/>
<path d="M208.662 187.91C207.709 187.91 206.772 187.743 205.909 187.39C202.811 186.124 201.368 182.897 201.951 178.536C201.987 178.262 202.243 178.069 202.513 178.107C202.786 178.144 202.979 178.395 202.942 178.669C202.425 182.543 203.644 185.384 206.289 186.464C209.148 187.633 212.95 186.464 214.941 183.805C217.446 180.461 216.635 175.722 212.716 170.804C202.477 157.954 203.162 151.12 204.608 145.724C206.71 137.884 212.863 128.899 230.26 130.627C230.534 130.654 230.735 130.899 230.707 131.174C230.68 131.449 230.447 131.645 230.16 131.622C213.473 129.96 207.574 138.517 205.574 145.983C204.127 151.38 203.548 157.694 213.497 170.181C219.498 177.712 217.065 182.637 215.741 184.405C214.085 186.615 211.31 187.909 208.662 187.91Z" fill="#263238"/>
</svg>
