<svg width="300" height="277" viewBox="0 0 300 277" fill="none" xmlns="http://www.w3.org/2000/svg">
<path d="M54 78.1809C22.3165 96.5088 1 130.765 1 170C1 228.542 48.4578 276 107 276C164.707 276 211.643 229.887 212.971 172.5" stroke="#F539D6" stroke-width="2" stroke-linecap="round"/>
<circle cx="107" cy="170" r="99" fill="#FF8EEC"/>
<mask id="mask0_245_35" style="mask-type:alpha" maskUnits="userSpaceOnUse" x="8" y="71" width="198" height="198">
<circle cx="107" cy="170" r="99" fill="#D9D9D9" fill-opacity="0.76"/>
</mask>
<g mask="url(#mask0_245_35)">
<path d="M138 90.5L52 82.5L78.5 62.5H118L179 82.5L201 134C183.863 134.729 169.303 130.529 162.695 127.76C161.727 127.355 160.594 127.704 160.07 128.612L153.899 139.308C153.643 139.752 153.562 140.287 153.714 140.777C157.005 151.365 171.836 146.408 179 142.5C192.6 132.1 209.667 146.5 216.5 155C224.9 160.2 201 219.167 188 248L175.5 242.5C190.3 210.9 172.667 203.333 162 203.5C147.6 208.3 143.667 201.5 143.5 197.5C144.7 190.3 137.333 190.5 133.5 191.5C113.1 196.3 95 212.5 87.5 221.5C85.9 232.3 80 233.5 76 233.5C69 233.5 66.5 240.333 64.5 244C56.1 259.2 43 260.333 37.5 259L10.5 236L30.5 216C36.9 209.2 31.5161 197 30.5 190C26 159 54.5 163.5 64.5 176C64.9 158 79.3333 151.833 86.5 151L83.4387 160.184C83.2229 160.831 83.7049 161.5 84.3874 161.5H101.386C101.763 161.5 102.107 161.288 102.278 160.952L138 90.5Z" fill="url(#paint0_linear_245_35)"/>
</g>
<path d="M76 78L95 46L184.5 71.5V110.5C184.5 110.5 167 110.5 152.5 116C138 121.5 120.5 122 120.5 122C120.5 122 110 114 99 98.5C88 83 76 78 76 78Z" fill="#512F15"/>
<path d="M136.5 77L26 12L139.5 0L260 71L136.5 77Z" fill="#6C4323"/>
<path d="M145.833 43L126 32.026L146.372 30L168 41.987L145.833 43Z" fill="#FC40DD"/>
<path d="M293.482 95.0249C293.41 94.7584 293.135 94.6012 292.869 94.6737C292.602 94.7462 292.445 95.021 292.518 95.2875L293.482 95.0249ZM284.5 107.656L284.459 108.154L284.5 107.656ZM278.409 125.648C278.681 125.698 278.942 125.518 278.992 125.247C279.042 124.975 278.862 124.714 278.591 124.664L278.409 125.648ZM298.422 106.888C298.274 106.655 297.965 106.586 297.732 106.734C297.499 106.883 297.43 107.192 297.578 107.425L298.422 106.888ZM289 117.156L289.026 116.657L289.013 116.656H289V117.156ZM155 37.1567C155.044 37.6548 155.044 37.6548 155.044 37.6547C155.044 37.6547 155.045 37.6547 155.045 37.6546C155.047 37.6545 155.049 37.6543 155.052 37.654C155.059 37.6535 155.069 37.6527 155.082 37.6516C155.108 37.6495 155.148 37.6463 155.201 37.6424C155.308 37.6345 155.467 37.6235 155.677 37.611C156.097 37.586 156.719 37.5552 157.522 37.5324C159.128 37.4868 161.46 37.4731 164.353 37.6014C170.139 37.858 178.167 38.6825 187.127 40.9536C205.047 45.4957 226.669 55.8155 241.58 78.9272L242 78.6562L242.42 78.3851C227.331 54.9968 205.453 44.5668 187.373 39.9842C178.333 37.6929 170.236 36.8613 164.397 36.6024C161.478 36.4729 159.122 36.4866 157.494 36.5328C156.68 36.5559 156.047 36.5872 155.618 36.6128C155.403 36.6255 155.239 36.6369 155.128 36.6451C155.072 36.6492 155.03 36.6525 155.001 36.6549C154.987 36.656 154.976 36.6569 154.968 36.6576C154.965 36.6579 154.962 36.6581 154.96 36.6583C154.959 36.6584 154.958 36.6585 154.957 36.6585C154.957 36.6586 154.956 36.6586 155 37.1567ZM242 78.6562L241.58 78.9272C247.773 88.5269 256.352 95.6514 264.435 100.463C272.506 105.268 280.135 107.796 284.459 108.154L284.5 107.656L284.541 107.158C280.423 106.816 272.944 104.364 264.946 99.6038C256.961 94.8502 248.51 87.8247 242.42 78.3851L242 78.6562ZM284.5 107.656L284.459 108.154C287.593 108.414 289.787 107.744 291.283 106.515C292.772 105.291 293.493 103.571 293.808 101.876C294.122 100.181 294.038 98.4678 293.88 97.19C293.801 96.5486 293.703 96.011 293.624 95.6325C293.584 95.4431 293.549 95.2932 293.524 95.1897C293.512 95.138 293.501 95.0978 293.494 95.07C293.491 95.0562 293.488 95.0454 293.486 95.0378C293.485 95.034 293.484 95.0311 293.484 95.0289C293.483 95.0278 293.483 95.027 293.483 95.0263C293.483 95.0259 293.483 95.0256 293.483 95.0254C293.483 95.0251 293.482 95.0249 293 95.1562C292.518 95.2875 292.518 95.2873 292.517 95.2872C292.517 95.2873 292.517 95.2872 292.518 95.2873C292.518 95.2875 292.518 95.2878 292.518 95.2884C292.518 95.2895 292.519 95.2914 292.519 95.2941C292.521 95.2995 292.523 95.3081 292.526 95.3198C292.532 95.3431 292.541 95.3786 292.552 95.4256C292.575 95.5195 292.608 95.6589 292.645 95.8369C292.719 96.1932 292.813 96.7032 292.888 97.3125C293.039 98.5361 293.113 100.137 292.824 101.693C292.536 103.249 291.894 104.718 290.647 105.743C289.407 106.762 287.495 107.403 284.541 107.158L284.5 107.656ZM242 78.6562L241.5 78.6372C241.247 85.299 242.788 95.6208 248.23 104.995C253.683 114.387 263.051 122.819 278.409 125.648L278.5 125.156L278.591 124.664C263.549 121.894 254.417 113.659 249.095 104.493C243.762 95.3081 242.253 85.1799 242.5 78.6751L242 78.6562ZM242 78.6562L241.55 78.8736C245.555 87.1652 252.342 96.8425 260.647 104.453C268.944 112.057 278.82 117.656 289 117.656V117.156V116.656C279.18 116.656 269.536 111.243 261.322 103.716C253.117 96.1965 246.404 86.6238 242.45 78.4387L242 78.6562ZM289 117.156L288.974 117.655C293.784 117.909 297.115 116.782 298.765 114.718C300.449 112.615 300.237 109.741 298.422 106.888L298 107.156L297.578 107.425C299.263 110.072 299.301 112.448 297.985 114.094C296.635 115.781 293.716 116.904 289.026 116.657L289 117.156Z" fill="#FC40DD"/>
<rect x="198.907" y="111" width="13" height="13" transform="rotate(4 198.907 111)" fill="#6C4323"/>
<rect x="205.183" y="241.489" width="13" height="13" transform="rotate(23.4957 205.183 241.489)" fill="#6C4323"/>
<rect x="43.9069" y="57" width="13" height="13" transform="rotate(4 43.9069 57)" fill="#ED893E"/>
<rect x="207.889" y="85.0242" width="5.80156" height="5.80156" transform="rotate(19 207.889 85.0242)" fill="#FC40DD"/>
<rect x="222.319" y="220" width="5.80156" height="5.80156" transform="rotate(38.4957 222.319 220)" fill="#6C4323"/>
<rect x="224.274" y="98.6667" width="7.70048" height="7.70048" transform="rotate(49 224.274 98.6667)" fill="#ED893E"/>
<rect x="233.211" y="238.329" width="7.70048" height="7.70048" transform="rotate(68.4957 233.211 238.329)" fill="#ED893E"/>
<rect x="14.9301" y="253" width="9" height="9" transform="rotate(19 14.9301 253)" fill="#F24CD6"/>
<rect x="5" y="236.627" width="11.9841" height="11.9841" transform="rotate(-3 5 236.627)" fill="#ED893E"/>
<defs>
<linearGradient id="paint0_linear_245_35" x1="10" y1="214.5" x2="233" y2="119" gradientUnits="userSpaceOnUse">
<stop stop-color="#F539D6" stop-opacity="0.97"/>
<stop offset="0.639423" stop-color="#D324B6"/>
</linearGradient>
</defs>
</svg>
