<svg xmlns="http://www.w3.org/2000/svg" xmlns:xlink="http://www.w3.org/1999/xlink" width="103" zoomAndPan="magnify" viewBox="0 0 77.25 86.249996" height="115" preserveAspectRatio="xMidYMid meet" version="1.0"><defs><clipPath id="cbd74447fc"><path d="M 9 0.0429688 L 74 0.0429688 L 74 84.722656 L 9 84.722656 Z M 9 0.0429688 " clip-rule="nonzero"/></clipPath><clipPath id="f25b7e5623"><path d="M 52.667969 17.695312 L 76.4375 17.695312 L 76.4375 42.207031 L 52.667969 42.207031 Z M 52.667969 17.695312 " clip-rule="nonzero"/></clipPath></defs><path fill="#ff66c4" d="M 37.621094 34.511719 L 9.988281 59.742188 L 8.167969 58.082031 C 0.570312 51.144531 0.0351562 39.359375 6.972656 31.761719 C 10.648438 27.734375 15.683594 25.691406 20.738281 25.691406 C 25.222656 25.691406 29.722656 27.300781 33.292969 30.5625 L 37.621094 34.511719 " fill-opacity="1" fill-rule="nonzero"/><g clip-path="url(#cbd74447fc)"><path fill="#f432a9" d="M 37.621094 0.046875 C 30.539062 0.046875 24.796875 5.789062 24.796875 12.867188 C 24.796875 19.949219 30.539062 25.691406 37.621094 25.691406 C 44.699219 25.691406 50.441406 19.949219 50.441406 12.867188 C 50.441406 5.789062 44.699219 0.046875 37.621094 0.046875 Z M 67.070312 58.082031 L 65.25 59.738281 L 37.621094 84.96875 L 9.988281 59.742188 L 37.621094 34.511719 L 41.945312 30.5625 C 45.519531 27.300781 50.015625 25.691406 54.5 25.691406 C 59.554688 25.691406 64.589844 27.734375 68.265625 31.761719 C 75.203125 39.359375 74.667969 51.144531 67.070312 58.082031 " fill-opacity="1" fill-rule="nonzero"/></g><g clip-path="url(#f25b7e5623)"><path fill="#ffc952" d="M 75.78125 29.1875 C 74.746094 30.703125 72.832031 31.109375 71.109375 31.320312 C 70.875 31.347656 70.636719 31.375 70.398438 31.390625 C 70.808594 31.609375 71.203125 31.859375 71.574219 32.144531 C 72.890625 33.152344 73.949219 34.644531 74.015625 36.335938 C 74.046875 37.199219 73.753906 38.117188 73.058594 38.675781 C 72.425781 39.183594 71.589844 39.394531 70.777344 39.300781 C 68.921875 39.085938 67.617188 37.53125 66.648438 36.085938 C 66.46875 35.816406 66.296875 35.539062 66.136719 35.257812 C 66.199219 36.019531 66.261719 36.785156 66.25 37.550781 C 66.226562 39.125 65.808594 40.917969 64.289062 41.734375 C 63.402344 42.207031 62.359375 42.167969 61.539062 41.582031 C 60.816406 41.066406 60.316406 40.328125 60 39.515625 C 59.367188 37.902344 59.625 36.070312 60.3125 34.523438 C 60.371094 34.390625 60.433594 34.261719 60.496094 34.132812 C 60.1875 34.332031 59.871094 34.527344 59.554688 34.714844 C 58.03125 35.613281 56.21875 36.335938 54.492188 35.535156 C 53.789062 35.207031 53.210938 34.625 52.953125 33.894531 C 52.675781 33.109375 52.863281 32.214844 53.3125 31.53125 C 54.179688 30.210938 55.722656 29.75 57.230469 29.507812 C 56.214844 28.875 55.378906 27.964844 54.960938 26.84375 C 54.667969 26.054688 54.640625 25.144531 55.167969 24.445312 C 55.660156 23.785156 56.429688 23.425781 57.242188 23.328125 C 58.925781 23.132812 60.4375 24.105469 61.527344 25.28125 C 62.09375 25.898438 62.597656 26.574219 63.117188 27.234375 C 63.132812 27.257812 63.148438 27.277344 63.164062 27.296875 C 62.867188 26.199219 62.695312 25.070312 62.6875 23.929688 C 62.671875 22.179688 62.992188 20.082031 64.195312 18.714844 C 64.769531 18.070312 65.621094 17.695312 66.484375 17.898438 C 67.25 18.078125 67.804688 18.710938 68.113281 19.394531 C 68.824219 20.988281 68.65625 22.960938 68.3125 24.625 C 68.167969 25.332031 67.960938 26.03125 67.691406 26.703125 C 68.347656 26.269531 69.035156 25.878906 69.75 25.550781 C 71.335938 24.8125 73.269531 24.179688 74.910156 25.132812 C 75.578125 25.523438 76.121094 26.164062 76.273438 26.925781 C 76.433594 27.707031 76.226562 28.53125 75.78125 29.1875 Z M 75.78125 29.1875 " fill-opacity="1" fill-rule="nonzero"/></g><path fill="#efa500" d="M 66.296875 25.140625 C 66.257812 26.492188 66.117188 27.835938 65.875 29.164062 C 65.421875 28.921875 64.878906 28.828125 64.347656 28.875 C 64.574219 27.640625 64.703125 26.394531 64.738281 25.140625 C 64.769531 24.152344 66.328125 24.152344 66.296875 25.140625 Z M 66.296875 25.140625 " fill-opacity="1" fill-rule="nonzero"/><path fill="#efa500" d="M 70.082031 29.3125 C 68.996094 29.679688 67.9375 30.113281 66.910156 30.613281 C 66.8125 30.023438 66.503906 29.589844 66.089844 29.296875 C 67.25 28.734375 68.445312 28.242188 69.667969 27.832031 C 70.070312 27.695312 70.519531 27.984375 70.625 28.367188 C 70.742188 28.785156 70.480469 29.179688 70.082031 29.3125 Z M 70.082031 29.3125 " fill-opacity="1" fill-rule="nonzero"/><path fill="#efa500" d="M 69.585938 34.867188 C 69.210938 35.082031 68.746094 34.941406 68.519531 34.589844 C 67.992188 33.777344 67.238281 33.125 66.367188 32.707031 C 66.398438 32.671875 66.429688 32.632812 66.457031 32.59375 C 66.730469 32.230469 66.886719 31.78125 66.929688 31.332031 C 66.933594 31.3125 66.933594 31.292969 66.9375 31.273438 C 68.128906 31.828125 69.144531 32.707031 69.867188 33.816406 C 70.09375 34.164062 69.941406 34.664062 69.585938 34.867188 Z M 69.585938 34.867188 " fill-opacity="1" fill-rule="nonzero"/><path fill="#efa500" d="M 64.910156 33.480469 C 64.566406 34.480469 64.382812 35.53125 64.359375 36.589844 C 64.332031 37.578125 62.773438 37.578125 62.800781 36.589844 C 62.828125 35.414062 63.03125 34.265625 63.394531 33.160156 C 63.683594 33.335938 64.007812 33.453125 64.351562 33.488281 C 64.539062 33.507812 64.726562 33.507812 64.910156 33.480469 Z M 64.910156 33.480469 " fill-opacity="1" fill-rule="nonzero"/><path fill="#efa500" d="M 62.539062 32.28125 C 61.277344 32.476562 60.035156 32.816406 58.847656 33.277344 C 58.453125 33.429688 57.992188 33.109375 57.890625 32.738281 C 57.769531 32.308594 58.039062 31.945312 58.433594 31.792969 C 59.65625 31.320312 60.921875 30.992188 62.214844 30.785156 C 62.1875 31.09375 62.222656 31.4375 62.339844 31.816406 C 62.386719 31.980469 62.453125 32.136719 62.539062 32.28125 Z M 62.539062 32.28125 " fill-opacity="1" fill-rule="nonzero"/><path fill="#efa500" d="M 63.3125 29.171875 C 62.847656 29.421875 62.472656 29.808594 62.300781 30.335938 C 61.277344 29.558594 60.308594 28.71875 59.410156 27.804688 C 58.710938 27.09375 59.8125 26.003906 60.511719 26.714844 C 61.382812 27.601562 62.316406 28.425781 63.3125 29.171875 Z M 63.3125 29.171875 " fill-opacity="1" fill-rule="nonzero"/><path fill="#6c3426" d="M 66.9375 31.269531 C 66.9375 31.289062 66.933594 31.308594 66.933594 31.328125 C 66.890625 31.78125 66.734375 32.226562 66.457031 32.59375 C 66.429688 32.632812 66.398438 32.667969 66.367188 32.703125 C 66.003906 33.125 65.472656 33.402344 64.910156 33.480469 C 64.726562 33.503906 64.539062 33.507812 64.351562 33.488281 C 64.007812 33.449219 63.683594 33.332031 63.394531 33.15625 C 63.039062 32.941406 62.742188 32.640625 62.539062 32.28125 C 62.453125 32.132812 62.386719 31.976562 62.339844 31.816406 C 62.222656 31.4375 62.1875 31.09375 62.214844 30.785156 C 62.226562 30.625 62.257812 30.472656 62.304688 30.332031 C 62.472656 29.804688 62.847656 29.417969 63.3125 29.171875 C 63.628906 29.003906 63.984375 28.90625 64.351562 28.875 C 64.878906 28.824219 65.421875 28.921875 65.875 29.164062 C 65.949219 29.207031 66.023438 29.25 66.089844 29.296875 C 66.503906 29.585938 66.808594 30.023438 66.910156 30.613281 C 66.945312 30.8125 66.957031 31.03125 66.9375 31.269531 Z M 66.9375 31.269531 " fill-opacity="1" fill-rule="nonzero"/></svg>