<svg xmlns="http://www.w3.org/2000/svg" xmlns:xlink="http://www.w3.org/1999/xlink" width="381" zoomAndPan="magnify" viewBox="0 0 285.75 86.249997" height="115" preserveAspectRatio="xMidYMid meet" version="1.0"><defs><g/><clipPath id="63a906839d"><path d="M 11 0 L 75 0 L 75 84.9375 L 11 84.9375 Z M 11 0 " clip-rule="nonzero"/></clipPath><clipPath id="f515ab0251"><path d="M 53.832031 17.671875 L 77.574219 17.671875 L 77.574219 42.570312 L 53.832031 42.570312 Z M 53.832031 17.671875 " clip-rule="nonzero"/></clipPath></defs><path fill="#ff66c4" d="M 38.765625 34.507812 L 11.109375 59.761719 L 9.285156 58.097656 C 1.679688 51.152344 1.144531 39.355469 8.089844 31.75 C 11.769531 27.722656 16.808594 25.675781 21.867188 25.675781 C 26.355469 25.675781 30.859375 27.285156 34.4375 30.550781 L 38.765625 34.507812 " fill-opacity="1" fill-rule="nonzero"/><g clip-path="url(#63a906839d)"><path fill="#f432a9" d="M 38.765625 0.00390625 C 31.679688 0.00390625 25.933594 5.75 25.933594 12.839844 C 25.933594 19.929688 31.679688 25.675781 38.765625 25.675781 C 45.855469 25.675781 51.601562 19.929688 51.601562 12.839844 C 51.601562 5.75 45.855469 0.00390625 38.765625 0.00390625 Z M 68.246094 58.097656 L 66.429688 59.757812 L 38.765625 85.015625 L 11.109375 59.761719 L 38.765625 34.507812 L 43.097656 30.550781 C 46.675781 27.285156 51.175781 25.675781 55.667969 25.675781 C 60.726562 25.675781 65.765625 27.722656 69.445312 31.75 C 76.390625 39.355469 75.855469 51.152344 68.246094 58.097656 " fill-opacity="1" fill-rule="nonzero"/></g><g clip-path="url(#f515ab0251)"><path fill="#ffc952" d="M 76.917969 29.34375 C 75.882812 30.886719 73.972656 31.296875 72.253906 31.511719 C 72.015625 31.539062 71.777344 31.566406 71.542969 31.582031 C 71.949219 31.804688 72.34375 32.058594 72.714844 32.347656 C 74.03125 33.371094 75.089844 34.890625 75.15625 36.605469 C 75.1875 37.484375 74.894531 38.414062 74.199219 38.984375 C 73.566406 39.5 72.730469 39.714844 71.921875 39.617188 C 70.066406 39.398438 68.761719 37.820312 67.796875 36.351562 C 67.613281 36.078125 67.441406 35.796875 67.28125 35.507812 C 67.347656 36.285156 67.40625 37.0625 67.394531 37.839844 C 67.371094 39.4375 66.953125 41.261719 65.4375 42.089844 C 64.550781 42.570312 63.511719 42.53125 62.6875 41.933594 C 61.96875 41.410156 61.464844 40.664062 61.148438 39.835938 C 60.519531 38.199219 60.777344 36.339844 61.460938 34.765625 C 61.519531 34.632812 61.582031 34.496094 61.648438 34.367188 C 61.335938 34.570312 61.023438 34.769531 60.707031 34.960938 C 59.183594 35.871094 57.371094 36.609375 55.648438 35.792969 C 54.945312 35.457031 54.367188 34.867188 54.109375 34.125 C 53.832031 33.328125 54.023438 32.421875 54.472656 31.726562 C 55.335938 30.382812 56.875 29.914062 58.382812 29.667969 C 57.367188 29.027344 56.535156 28.101562 56.117188 26.960938 C 55.824219 26.160156 55.796875 25.238281 56.320312 24.523438 C 56.816406 23.855469 57.585938 23.492188 58.394531 23.394531 C 60.078125 23.191406 61.589844 24.179688 62.675781 25.378906 C 63.246094 26.003906 63.746094 26.691406 64.265625 27.363281 C 64.28125 27.382812 64.296875 27.40625 64.3125 27.425781 C 64.015625 26.308594 63.84375 25.164062 63.835938 24 C 63.824219 22.222656 64.144531 20.09375 65.34375 18.707031 C 65.914062 18.046875 66.765625 17.671875 67.632812 17.875 C 68.394531 18.058594 68.949219 18.699219 69.257812 19.394531 C 69.96875 21.015625 69.800781 23.019531 69.460938 24.707031 C 69.3125 25.429688 69.105469 26.136719 68.839844 26.824219 C 69.492188 26.378906 70.179688 25.984375 70.894531 25.648438 C 72.480469 24.902344 74.410156 24.257812 76.046875 25.226562 C 76.714844 25.621094 77.257812 26.273438 77.410156 27.046875 C 77.570312 27.839844 77.367188 28.675781 76.917969 29.34375 Z M 76.917969 29.34375 " fill-opacity="1" fill-rule="nonzero"/></g><path fill="#efa500" d="M 67.445312 25.234375 C 67.40625 26.605469 67.261719 27.972656 67.019531 29.320312 C 66.570312 29.074219 66.027344 28.976562 65.496094 29.023438 C 65.722656 27.773438 65.851562 26.507812 65.886719 25.234375 C 65.917969 24.226562 67.472656 24.226562 67.445312 25.234375 Z M 67.445312 25.234375 " fill-opacity="1" fill-rule="nonzero"/><path fill="#efa500" d="M 71.226562 29.472656 C 70.136719 29.84375 69.082031 30.285156 68.058594 30.792969 C 67.957031 30.195312 67.652344 29.75 67.238281 29.457031 C 68.394531 28.882812 69.589844 28.386719 70.8125 27.964844 C 71.210938 27.828125 71.664062 28.125 71.769531 28.511719 C 71.882812 28.9375 71.621094 29.335938 71.226562 29.472656 Z M 71.226562 29.472656 " fill-opacity="1" fill-rule="nonzero"/><path fill="#efa500" d="M 70.730469 35.113281 C 70.355469 35.335938 69.890625 35.1875 69.664062 34.835938 C 69.136719 34.003906 68.382812 33.347656 67.511719 32.917969 C 67.542969 32.882812 67.574219 32.84375 67.601562 32.804688 C 67.878906 32.433594 68.035156 31.980469 68.078125 31.519531 C 68.078125 31.5 68.082031 31.480469 68.082031 31.460938 C 69.273438 32.027344 70.289062 32.921875 71.007812 34.046875 C 71.238281 34.402344 71.082031 34.90625 70.730469 35.113281 Z M 70.730469 35.113281 " fill-opacity="1" fill-rule="nonzero"/><path fill="#efa500" d="M 66.058594 33.707031 C 65.714844 34.722656 65.53125 35.789062 65.503906 36.863281 C 65.480469 37.871094 63.925781 37.871094 63.949219 36.863281 C 63.976562 35.667969 64.179688 34.503906 64.542969 33.378906 C 64.832031 33.558594 65.15625 33.675781 65.5 33.714844 C 65.683594 33.734375 65.875 33.730469 66.058594 33.707031 Z M 66.058594 33.707031 " fill-opacity="1" fill-rule="nonzero"/><path fill="#efa500" d="M 63.6875 32.488281 C 62.425781 32.683594 61.1875 33.03125 60 33.5 C 59.605469 33.652344 59.144531 33.328125 59.042969 32.953125 C 58.921875 32.515625 59.191406 32.144531 59.585938 31.992188 C 60.808594 31.511719 62.074219 31.175781 63.363281 30.96875 C 63.335938 31.28125 63.375 31.632812 63.488281 32.015625 C 63.535156 32.183594 63.605469 32.339844 63.6875 32.488281 Z M 63.6875 32.488281 " fill-opacity="1" fill-rule="nonzero"/><path fill="#efa500" d="M 64.460938 29.332031 C 63.996094 29.582031 63.621094 29.976562 63.453125 30.507812 C 62.429688 29.722656 61.460938 28.871094 60.5625 27.941406 C 59.863281 27.21875 60.964844 26.109375 61.664062 26.835938 C 62.535156 27.734375 63.464844 28.574219 64.460938 29.332031 Z M 64.460938 29.332031 " fill-opacity="1" fill-rule="nonzero"/><path fill="#6c3426" d="M 68.082031 31.460938 C 68.082031 31.480469 68.082031 31.5 68.078125 31.519531 C 68.035156 31.980469 67.878906 32.433594 67.605469 32.804688 C 67.574219 32.84375 67.546875 32.878906 67.515625 32.917969 C 67.148438 33.347656 66.617188 33.628906 66.058594 33.703125 C 65.875 33.730469 65.6875 33.734375 65.5 33.710938 C 65.15625 33.671875 64.832031 33.554688 64.542969 33.378906 C 64.1875 33.160156 63.890625 32.851562 63.6875 32.484375 C 63.605469 32.335938 63.535156 32.179688 63.488281 32.015625 C 63.375 31.632812 63.335938 31.28125 63.363281 30.96875 C 63.375 30.804688 63.40625 30.652344 63.453125 30.507812 C 63.621094 29.972656 63.996094 29.578125 64.464844 29.328125 C 64.777344 29.160156 65.132812 29.058594 65.5 29.023438 C 66.027344 28.976562 66.570312 29.074219 67.023438 29.320312 C 67.097656 29.363281 67.167969 29.410156 67.238281 29.457031 C 67.648438 29.75 67.957031 30.191406 68.058594 30.792969 C 68.089844 30.996094 68.101562 31.21875 68.082031 31.460938 Z M 68.082031 31.460938 " fill-opacity="1" fill-rule="nonzero"/><g fill="#f432a9" fill-opacity="1"><g transform="translate(82.889476, 55.352602)"><g><path d="M 13.8125 -14.359375 C 17.789062 -10.535156 20.613281 -7.660156 22.28125 -5.734375 C 23.144531 -4.773438 23.578125 -3.960938 23.578125 -3.296875 C 23.578125 -2.628906 23.054688 -1.847656 22.015625 -0.953125 C 20.972656 -0.0546875 20.117188 0.390625 19.453125 0.390625 C 18.796875 0.390625 18 -0.15625 17.0625 -1.25 L 8.46875 -11.046875 L 8.46875 -3.4375 C 8.46875 -2.8125 8.445312 -2.351562 8.40625 -2.0625 C 8.375 -1.78125 8.253906 -1.441406 8.046875 -1.046875 C 7.679688 -0.347656 6.664062 0 5 0 C 3.175781 0 2.109375 -0.492188 1.796875 -1.484375 C 1.640625 -1.898438 1.5625 -2.5625 1.5625 -3.46875 L 1.5625 -25.171875 C 1.5625 -25.773438 1.578125 -26.222656 1.609375 -26.515625 C 1.648438 -26.816406 1.773438 -27.164062 1.984375 -27.5625 C 2.347656 -28.257812 3.363281 -28.609375 5.03125 -28.609375 C 6.851562 -28.609375 7.9375 -28.128906 8.28125 -27.171875 C 8.40625 -26.722656 8.46875 -26.046875 8.46875 -25.140625 L 8.46875 -17.6875 C 12.007812 -21.664062 14.875 -24.929688 17.0625 -27.484375 C 17.96875 -28.546875 18.757812 -29.078125 19.4375 -29.078125 C 20.113281 -29.078125 20.972656 -28.628906 22.015625 -27.734375 C 23.054688 -26.835938 23.578125 -26.054688 23.578125 -25.390625 C 23.578125 -24.722656 23.1875 -23.9375 22.40625 -23.03125 C 20.894531 -21.28125 18.550781 -18.882812 15.375 -15.84375 Z M 13.8125 -14.359375 "/></g></g></g><g fill="#f432a9" fill-opacity="1"><g transform="translate(108.760152, 55.352602)"><g><path d="M 14.90625 -18.390625 C 15.0625 -19.835938 16.09375 -20.5625 18 -20.5625 C 19.007812 -20.5625 19.757812 -20.484375 20.25 -20.328125 C 20.75 -20.171875 21.09375 -19.898438 21.28125 -19.515625 C 21.476562 -19.128906 21.597656 -18.785156 21.640625 -18.484375 C 21.679688 -18.179688 21.703125 -17.734375 21.703125 -17.140625 L 21.703125 -3.46875 C 21.703125 -2.875 21.679688 -2.425781 21.640625 -2.125 C 21.597656 -1.820312 21.488281 -1.476562 21.3125 -1.09375 C 20.945312 -0.414062 20.054688 -0.078125 18.640625 -0.078125 C 17.222656 -0.078125 16.269531 -0.25 15.78125 -0.59375 C 15.300781 -0.945312 15.023438 -1.460938 14.953125 -2.140625 C 13.984375 -0.765625 12.375 -0.078125 10.125 -0.078125 C 7.875 -0.078125 5.785156 -1.101562 3.859375 -3.15625 C 1.929688 -5.21875 0.96875 -7.609375 0.96875 -10.328125 C 0.96875 -13.046875 1.9375 -15.425781 3.875 -17.46875 C 5.820312 -19.507812 7.953125 -20.53125 10.265625 -20.53125 C 11.148438 -20.53125 11.957031 -20.375 12.6875 -20.0625 C 13.414062 -19.75 13.921875 -19.457031 14.203125 -19.1875 C 14.492188 -18.914062 14.726562 -18.648438 14.90625 -18.390625 Z M 7.8125 -10.265625 C 7.8125 -9.410156 8.144531 -8.632812 8.8125 -7.9375 C 9.488281 -7.25 10.304688 -6.90625 11.265625 -6.90625 C 12.234375 -6.90625 13.035156 -7.253906 13.671875 -7.953125 C 14.316406 -8.660156 14.640625 -9.4375 14.640625 -10.28125 C 14.640625 -11.125 14.332031 -11.910156 13.71875 -12.640625 C 13.101562 -13.367188 12.28125 -13.734375 11.25 -13.734375 C 10.226562 -13.734375 9.398438 -13.367188 8.765625 -12.640625 C 8.128906 -11.910156 7.8125 -11.117188 7.8125 -10.265625 Z M 7.8125 -10.265625 "/></g></g></g><g fill="#f432a9" fill-opacity="1"><g transform="translate(132.952992, 55.352602)"><g><path d="M 15.53125 -20.328125 C 16.03125 -20.171875 16.441406 -19.90625 16.765625 -19.53125 C 17.085938 -19.15625 17.25 -18.550781 17.25 -17.71875 C 17.25 -16.882812 17 -15.972656 16.5 -14.984375 C 16.007812 -13.992188 15.296875 -13.5 14.359375 -13.5 C 13.890625 -13.5 13.441406 -13.601562 13.015625 -13.8125 C 12.585938 -14.019531 12.019531 -14.125 11.3125 -14.125 C 10.613281 -14.125 9.957031 -13.875 9.34375 -13.375 C 8.738281 -12.882812 8.4375 -12.289062 8.4375 -11.59375 L 8.4375 -3.390625 C 8.4375 -2.796875 8.414062 -2.347656 8.375 -2.046875 C 8.332031 -1.742188 8.207031 -1.398438 8 -1.015625 C 7.613281 -0.335938 6.597656 0 4.953125 0 C 3.703125 0 2.804688 -0.21875 2.265625 -0.65625 C 1.847656 -1.019531 1.613281 -1.582031 1.5625 -2.34375 C 1.5625 -2.601562 1.5625 -2.976562 1.5625 -3.46875 L 1.5625 -17.171875 C 1.5625 -17.773438 1.578125 -18.222656 1.609375 -18.515625 C 1.648438 -18.816406 1.765625 -19.148438 1.953125 -19.515625 C 2.316406 -20.210938 3.332031 -20.5625 5 -20.5625 C 6.5625 -20.5625 7.535156 -20.265625 7.921875 -19.671875 C 8.210938 -19.253906 8.359375 -18.828125 8.359375 -18.390625 C 8.484375 -18.566406 8.671875 -18.785156 8.921875 -19.046875 C 9.171875 -19.304688 9.695312 -19.65625 10.5 -20.09375 C 11.300781 -20.539062 12.007812 -20.765625 12.625 -20.765625 C 13.238281 -20.765625 13.753906 -20.726562 14.171875 -20.65625 C 14.585938 -20.59375 15.039062 -20.484375 15.53125 -20.328125 Z M 15.53125 -20.328125 "/></g></g></g><g fill="#f432a9" fill-opacity="1"><g transform="translate(151.722094, 55.352602)"><g><path d="M 13.5 -13.65625 L 10.96875 -13.8125 L 10.96875 -8.4375 C 10.96875 -7.726562 11.078125 -7.21875 11.296875 -6.90625 C 11.515625 -6.59375 11.929688 -6.4375 12.546875 -6.4375 C 13.160156 -6.4375 13.628906 -6.414062 13.953125 -6.375 C 14.273438 -6.34375 14.617188 -6.222656 14.984375 -6.015625 C 15.585938 -5.671875 15.890625 -4.796875 15.890625 -3.390625 C 15.890625 -1.753906 15.523438 -0.753906 14.796875 -0.390625 C 14.398438 -0.203125 14.050781 -0.0859375 13.75 -0.046875 C 13.457031 -0.015625 13.023438 0 12.453125 0 C 9.742188 0 7.6875 -0.609375 6.28125 -1.828125 C 4.875 -3.054688 4.171875 -5.128906 4.171875 -8.046875 L 4.171875 -13.8125 C 3.679688 -13.738281 3.148438 -13.703125 2.578125 -13.703125 C 2.003906 -13.703125 1.523438 -13.921875 1.140625 -14.359375 C 0.765625 -14.804688 0.578125 -15.5625 0.578125 -16.625 C 0.578125 -17.695312 0.640625 -18.472656 0.765625 -18.953125 C 0.898438 -19.429688 1.085938 -19.773438 1.328125 -19.984375 C 1.742188 -20.316406 2.265625 -20.484375 2.890625 -20.484375 L 4.171875 -20.328125 L 4.171875 -24.359375 C 4.171875 -24.953125 4.191406 -25.390625 4.234375 -25.671875 C 4.273438 -25.960938 4.398438 -26.28125 4.609375 -26.625 C 4.941406 -27.269531 5.941406 -27.59375 7.609375 -27.59375 C 9.378906 -27.59375 10.429688 -27.113281 10.765625 -26.15625 C 10.898438 -25.738281 10.96875 -25.070312 10.96875 -24.15625 L 10.96875 -20.328125 C 12.113281 -20.429688 12.976562 -20.484375 13.5625 -20.484375 C 14.144531 -20.484375 14.585938 -20.460938 14.890625 -20.421875 C 15.191406 -20.390625 15.535156 -20.269531 15.921875 -20.0625 C 16.597656 -19.71875 16.9375 -18.71875 16.9375 -17.0625 C 16.9375 -15.414062 16.585938 -14.410156 15.890625 -14.046875 C 15.492188 -13.867188 15.144531 -13.757812 14.84375 -13.71875 C 14.550781 -13.675781 14.101562 -13.65625 13.5 -13.65625 Z M 13.5 -13.65625 "/></g></g></g><g fill="#f432a9" fill-opacity="1"><g transform="translate(170.179039, 55.352602)"><g><path d="M 1.5625 -17.140625 C 1.5625 -17.734375 1.578125 -18.179688 1.609375 -18.484375 C 1.648438 -18.785156 1.765625 -19.128906 1.953125 -19.515625 C 2.316406 -20.191406 3.332031 -20.53125 5 -20.53125 C 6.25 -20.53125 7.132812 -20.304688 7.65625 -19.859375 C 8.09375 -19.503906 8.328125 -18.945312 8.359375 -18.1875 C 8.378906 -17.925781 8.390625 -17.550781 8.390625 -17.0625 L 8.390625 -3.390625 C 8.390625 -2.796875 8.367188 -2.347656 8.328125 -2.046875 C 8.296875 -1.742188 8.175781 -1.398438 7.96875 -1.015625 C 7.625 -0.335938 6.617188 0 4.953125 0 C 3.316406 0 2.316406 -0.347656 1.953125 -1.046875 C 1.765625 -1.441406 1.648438 -1.78125 1.609375 -2.0625 C 1.578125 -2.351562 1.5625 -2.8125 1.5625 -3.4375 Z M 7.984375 -24.375 C 7.785156 -24 7.4375 -23.734375 6.9375 -23.578125 C 6.445312 -23.421875 5.789062 -23.34375 4.96875 -23.34375 C 4.15625 -23.34375 3.5 -23.421875 3 -23.578125 C 2.507812 -23.734375 2.164062 -24.003906 1.96875 -24.390625 C 1.769531 -24.785156 1.648438 -25.128906 1.609375 -25.421875 C 1.578125 -25.722656 1.5625 -26.171875 1.5625 -26.765625 C 1.5625 -27.367188 1.578125 -27.820312 1.609375 -28.125 C 1.648438 -28.425781 1.765625 -28.757812 1.953125 -29.125 C 2.316406 -29.820312 3.332031 -30.171875 5 -30.171875 C 6.632812 -30.171875 7.625 -29.820312 7.96875 -29.125 C 8.175781 -28.726562 8.296875 -28.378906 8.328125 -28.078125 C 8.367188 -27.785156 8.390625 -27.335938 8.390625 -26.734375 C 8.390625 -26.140625 8.367188 -25.691406 8.328125 -25.390625 C 8.296875 -25.085938 8.179688 -24.75 7.984375 -24.375 Z M 7.984375 -24.375 "/></g></g></g><g fill="#f432a9" fill-opacity="1"><g transform="translate(181.066171, 55.352602)"><g><path d="M 13 -20.5625 C 15.601562 -20.5625 17.769531 -19.566406 19.5 -17.578125 C 21.226562 -15.585938 22.09375 -13.160156 22.09375 -10.296875 L 22.09375 -3.4375 C 22.09375 -2.832031 22.070312 -2.378906 22.03125 -2.078125 C 21.988281 -1.785156 21.878906 -1.457031 21.703125 -1.09375 C 21.335938 -0.382812 20.320312 -0.03125 18.65625 -0.03125 C 16.8125 -0.03125 15.742188 -0.515625 15.453125 -1.484375 C 15.296875 -1.921875 15.21875 -2.582031 15.21875 -3.46875 L 15.21875 -10.34375 C 15.21875 -11.40625 14.910156 -12.234375 14.296875 -12.828125 C 13.691406 -13.429688 12.875 -13.734375 11.84375 -13.734375 C 10.8125 -13.734375 9.976562 -13.421875 9.34375 -12.796875 C 8.707031 -12.171875 8.390625 -11.351562 8.390625 -10.34375 L 8.390625 -3.4375 C 8.390625 -2.832031 8.367188 -2.378906 8.328125 -2.078125 C 8.296875 -1.785156 8.175781 -1.457031 7.96875 -1.09375 C 7.625 -0.382812 6.617188 -0.03125 4.953125 -0.03125 C 3.316406 -0.03125 2.316406 -0.382812 1.953125 -1.09375 C 1.765625 -1.476562 1.648438 -1.820312 1.609375 -2.125 C 1.578125 -2.425781 1.5625 -2.875 1.5625 -3.46875 L 1.5625 -17.296875 C 1.5625 -17.867188 1.578125 -18.300781 1.609375 -18.59375 C 1.648438 -18.894531 1.773438 -19.226562 1.984375 -19.59375 C 2.347656 -20.238281 3.351562 -20.5625 5 -20.5625 C 6.582031 -20.5625 7.554688 -20.265625 7.921875 -19.671875 C 8.179688 -19.234375 8.3125 -18.703125 8.3125 -18.078125 C 8.414062 -18.253906 8.648438 -18.507812 9.015625 -18.84375 C 9.378906 -19.1875 9.726562 -19.460938 10.0625 -19.671875 C 10.945312 -20.265625 11.925781 -20.5625 13 -20.5625 Z M 13 -20.5625 "/></g></g></g><g fill="#f432a9" fill-opacity="1"><g transform="translate(205.649207, 55.352602)"><g><path d="M 1.5625 -17.140625 C 1.5625 -17.734375 1.578125 -18.179688 1.609375 -18.484375 C 1.648438 -18.785156 1.765625 -19.128906 1.953125 -19.515625 C 2.316406 -20.191406 3.332031 -20.53125 5 -20.53125 C 6.25 -20.53125 7.132812 -20.304688 7.65625 -19.859375 C 8.09375 -19.503906 8.328125 -18.945312 8.359375 -18.1875 C 8.378906 -17.925781 8.390625 -17.550781 8.390625 -17.0625 L 8.390625 -3.390625 C 8.390625 -2.796875 8.367188 -2.347656 8.328125 -2.046875 C 8.296875 -1.742188 8.175781 -1.398438 7.96875 -1.015625 C 7.625 -0.335938 6.617188 0 4.953125 0 C 3.316406 0 2.316406 -0.347656 1.953125 -1.046875 C 1.765625 -1.441406 1.648438 -1.78125 1.609375 -2.0625 C 1.578125 -2.351562 1.5625 -2.8125 1.5625 -3.4375 Z M 7.984375 -24.375 C 7.785156 -24 7.4375 -23.734375 6.9375 -23.578125 C 6.445312 -23.421875 5.789062 -23.34375 4.96875 -23.34375 C 4.15625 -23.34375 3.5 -23.421875 3 -23.578125 C 2.507812 -23.734375 2.164062 -24.003906 1.96875 -24.390625 C 1.769531 -24.785156 1.648438 -25.128906 1.609375 -25.421875 C 1.578125 -25.722656 1.5625 -26.171875 1.5625 -26.765625 C 1.5625 -27.367188 1.578125 -27.820312 1.609375 -28.125 C 1.648438 -28.425781 1.765625 -28.757812 1.953125 -29.125 C 2.316406 -29.820312 3.332031 -30.171875 5 -30.171875 C 6.632812 -30.171875 7.625 -29.820312 7.96875 -29.125 C 8.175781 -28.726562 8.296875 -28.378906 8.328125 -28.078125 C 8.367188 -27.785156 8.390625 -27.335938 8.390625 -26.734375 C 8.390625 -26.140625 8.367188 -25.691406 8.328125 -25.390625 C 8.296875 -25.085938 8.179688 -24.75 7.984375 -24.375 Z M 7.984375 -24.375 "/></g></g></g><g fill="#f432a9" fill-opacity="1"><g transform="translate(216.536339, 55.352602)"><g><path d="M 13.8125 -14.359375 C 17.789062 -10.535156 20.613281 -7.660156 22.28125 -5.734375 C 23.144531 -4.773438 23.578125 -3.960938 23.578125 -3.296875 C 23.578125 -2.628906 23.054688 -1.847656 22.015625 -0.953125 C 20.972656 -0.0546875 20.117188 0.390625 19.453125 0.390625 C 18.796875 0.390625 18 -0.15625 17.0625 -1.25 L 8.46875 -11.046875 L 8.46875 -3.4375 C 8.46875 -2.8125 8.445312 -2.351562 8.40625 -2.0625 C 8.375 -1.78125 8.253906 -1.441406 8.046875 -1.046875 C 7.679688 -0.347656 6.664062 0 5 0 C 3.175781 0 2.109375 -0.492188 1.796875 -1.484375 C 1.640625 -1.898438 1.5625 -2.5625 1.5625 -3.46875 L 1.5625 -25.171875 C 1.5625 -25.773438 1.578125 -26.222656 1.609375 -26.515625 C 1.648438 -26.816406 1.773438 -27.164062 1.984375 -27.5625 C 2.347656 -28.257812 3.363281 -28.609375 5.03125 -28.609375 C 6.851562 -28.609375 7.9375 -28.128906 8.28125 -27.171875 C 8.40625 -26.722656 8.46875 -26.046875 8.46875 -25.140625 L 8.46875 -17.6875 C 12.007812 -21.664062 14.875 -24.929688 17.0625 -27.484375 C 17.96875 -28.546875 18.757812 -29.078125 19.4375 -29.078125 C 20.113281 -29.078125 20.972656 -28.628906 22.015625 -27.734375 C 23.054688 -26.835938 23.578125 -26.054688 23.578125 -25.390625 C 23.578125 -24.722656 23.1875 -23.9375 22.40625 -23.03125 C 20.894531 -21.28125 18.550781 -18.882812 15.375 -15.84375 Z M 13.8125 -14.359375 "/></g></g></g><g fill="#f432a9" fill-opacity="1"><g transform="translate(242.407016, 55.352602)"><g><path d="M 20.25 -27.5625 C 20.507812 -27.976562 20.882812 -28.265625 21.375 -28.421875 C 21.875 -28.578125 22.492188 -28.65625 23.234375 -28.65625 C 23.984375 -28.65625 24.578125 -28.585938 25.015625 -28.453125 C 25.460938 -28.328125 25.800781 -28.171875 26.03125 -27.984375 C 26.269531 -27.804688 26.441406 -27.535156 26.546875 -27.171875 C 26.703125 -26.722656 26.78125 -26.046875 26.78125 -25.140625 L 26.78125 -13.34375 C 26.78125 -9.914062 25.710938 -6.796875 23.578125 -3.984375 C 22.535156 -2.648438 21.191406 -1.570312 19.546875 -0.75 C 17.910156 0.0625 16.097656 0.46875 14.109375 0.46875 C 12.117188 0.46875 10.3125 0.0507812 8.6875 -0.78125 C 7.0625 -1.613281 5.738281 -2.707031 4.71875 -4.0625 C 2.613281 -6.820312 1.5625 -9.941406 1.5625 -13.421875 L 1.5625 -25.171875 C 1.5625 -25.796875 1.578125 -26.257812 1.609375 -26.5625 C 1.648438 -26.863281 1.773438 -27.207031 1.984375 -27.59375 C 2.191406 -27.988281 2.539062 -28.265625 3.03125 -28.421875 C 3.53125 -28.578125 4.195312 -28.65625 5.03125 -28.65625 C 5.863281 -28.65625 6.523438 -28.578125 7.015625 -28.421875 C 7.515625 -28.265625 7.859375 -27.988281 8.046875 -27.59375 C 8.359375 -27 8.515625 -26.179688 8.515625 -25.140625 L 8.515625 -13.421875 C 8.515625 -11.835938 8.90625 -10.332031 9.6875 -8.90625 C 10.070312 -8.175781 10.65625 -7.585938 11.4375 -7.140625 C 12.21875 -6.703125 13.140625 -6.484375 14.203125 -6.484375 C 16.109375 -6.484375 17.523438 -7.179688 18.453125 -8.578125 C 19.390625 -9.984375 19.859375 -11.613281 19.859375 -13.46875 L 19.859375 -25.40625 C 19.859375 -26.425781 19.988281 -27.144531 20.25 -27.5625 Z M 20.25 -27.5625 "/></g></g></g></svg>